<?xml version="1.0" encoding="UTF-8"?>
<svg class="animated" version="1.1" viewBox="0 0 750 500" xmlns="http://www.w3.org/2000/svg">
<style>svg#freepik_stories-ecommerce-web-page:not(.animated) .animable {opacity: 0;}svg#freepik_stories-ecommerce-web-page.animated #freepik--background-complete--inject-28 {animation: 1s 1 forwards cubic-bezier(.36,-0.01,.5,1.38) slideDown,6s Infinite  linear floating;animation-delay: 0s,1s;}svg#freepik_stories-ecommerce-web-page.animated #freepik--Floor--inject-28 {animation: 1s 1 forwards cubic-bezier(.36,-0.01,.5,1.38) fadeIn;animation-delay: 0s;}svg#freepik_stories-ecommerce-web-page.animated #freepik--Bag--inject-28 {animation: 1s 1 forwards cubic-bezier(.36,-0.01,.5,1.38) fadeIn;animation-delay: 0s;}svg#freepik_stories-ecommerce-web-page.animated #freepik--Gifts--inject-28 {animation: 1s 1 forwards cubic-bezier(.36,-0.01,.5,1.38) fadeIn;animation-delay: 0s;}svg#freepik_stories-ecommerce-web-page.animated #freepik--Device--inject-28 {animation: 1s 1 forwards cubic-bezier(.36,-0.01,.5,1.38) slideDown;animation-delay: 0s;}svg#freepik_stories-ecommerce-web-page.animated #freepik--Label--inject-28 {animation: 1s 1 forwards cubic-bezier(.36,-0.01,.5,1.38) slideDown,6s Infinite  linear wind;animation-delay: 0s,1s;}svg#freepik_stories-ecommerce-web-page.animated #freepik--credit-card--inject-28 {animation: 1s 1 forwards cubic-bezier(.36,-0.01,.5,1.38) slideDown,6s Infinite  linear floating;animation-delay: 0s,1s;}svg#freepik_stories-ecommerce-web-page.animated #freepik--Character--inject-28 {animation: 1s 1 forwards cubic-bezier(.36,-0.01,.5,1.38) fadeIn;animation-delay: 0s;}            @keyframes slideDown {                0% {                    opacity: 0;                    transform: translateY(-30px);                }                100% {                    opacity: 1;                    transform: translateY(0);                }            }                    @keyframes floating {                0% {                    opacity: 1;                    transform: translateY(0px);                }                50% {                    transform: translateY(-10px);                }                100% {                    opacity: 1;                    transform: translateY(0px);                }            }                    @keyframes fadeIn {                0% {                    opacity: 0;                }                100% {                    opacity: 1;                }            }                    @keyframes wind {                0% {                    transform: rotate( 0deg );                }                25% {                    transform: rotate( 1deg );                }                75% {                    transform: rotate( -1deg );                }            }</style>
<g class="animable animator-active" style="transform-origin:375.005px 156.38px">
<rect class="animable" x="575.1" y="161.11" width="105.66" height="105.66" fill="#ebebeb" style="transform-origin:627.93px 213.94px"/>
<path class="animable" d="m629.68 178.07a3.56 3.56 0 0 1 3.59 3.59v1.84a30.36 30.36 0 0 1 13 4.59 4.46 4.46 0 0 1 2.51 4 4.6 4.6 0 0 1-4.68 4.59 4.86 4.86 0 0 1-2.51-0.75 30.14 30.14 0 0 0-8.6-3.67v16c12.69 3.18 18.12 8.27 18.12 17.21 0 9.19-7.18 15.29-17.79 16.29v5a3.56 3.56 0 0 1-3.59 3.59 3.63 3.63 0 0 1-3.68-3.59v-5.18a36.08 36.08 0 0 1-17.12-6.51 4.6 4.6 0 0 1-2.26-4 4.54 4.54 0 0 1 4.6-4.6 4.62 4.62 0 0 1 2.76 0.92 29.58 29.58 0 0 0 12.36 5.6v-16.42c-12.2-3.17-17.88-7.76-17.88-17.2 0-8.94 7.1-15.12 17.54-16v-1.75a3.63 3.63 0 0 1 3.63-3.55zm-3.34 28.48v-14.78c-5.35 0.5-8 3.34-8 7-0.02 3.52 1.57 5.69 8 7.78zm6.6 11.61v15.2c5.34-0.58 8.27-3.25 8.27-7.26 0-3.68-1.84-5.93-8.27-7.94z" fill="#fff" style="transform-origin:628.89px 214.21px"/>
<rect class="animable" x="69.25" y="45.99" width="105.66" height="105.66" fill="#ebebeb" style="transform-origin:122.08px 98.82px"/>
<polygon class="animable" points="154.02 96.5 90.13 96.5 90.13 87.44 154.02 87.44 154.02 87.44" fill="#fff" style="transform-origin:122.075px 91.97px"/>
<path class="animable" d="M93.69,94.58l.12,1.92,2,31.69h52.53l2-31.69.12-1.92Zm19.44,26.61a1.72,1.72,0,0,1-1.72,1.74h-.27a1.43,1.43,0,0,1-1.43-1.44V101.85a1.43,1.43,0,0,1,1.43-1.42h.55a1.42,1.42,0,0,1,1.44,1.42Zm10.64,0a1.72,1.72,0,0,1-1.72,1.74h-.27a1.43,1.43,0,0,1-1.43-1.44V101.85a1.43,1.43,0,0,1,1.43-1.42h.55a1.42,1.42,0,0,1,1.44,1.42Zm10.65,0a1.73,1.73,0,0,1-1.72,1.74h-.28a1.44,1.44,0,0,1-1.43-1.44V101.85a1.43,1.43,0,0,1,1.43-1.42H133a1.43,1.43,0,0,1,1.45,1.42Z" fill="#fff" style="transform-origin:122.075px 111.385px"/>
<path class="animable" d="m128.87 91a6.8 6.8 0 1 1-6.79-6.79 6.8 6.8 0 0 1 6.79 6.79z" fill="#fff" style="transform-origin:122.07px 91.01px"/>
<polygon class="animable" points="140.7 90.4 137.7 90.4 137.7 72.44 106.45 72.44 106.45 90.4 103.45 90.4 103.45 69.44 140.7 69.44" fill="#fff" style="transform-origin:122.075px 79.92px"/>
</g>
<g class="animable" style="transform-origin:375px 443.776px">
<path class="animable" d="M49.81,443.78c208.34-.62,442-.62,650.38,0-208.34.61-442,.61-650.38,0Z" fill="#263238" style="transform-origin:375px 443.776px"/>
</g>
<g class="animable" style="transform-origin:135.645px 336.167px">
<polygon class="animable" points="49.81 443.77 221.48 443.77 196.44 268.91 74.84 268.91" fill="#823db7" style="transform-origin:135.645px 356.34px"/>
<polygon class="animable" points="74.84 268.91 93.92 443.77 49.81 443.77" fill="#823db7" style="transform-origin:71.865px 356.34px"/>
<polygon class="animable" points="74.84 268.91 93.92 443.77 49.81 443.77" opacity=".2" style="transform-origin:71.865px 356.34px"/>
<path class="animable" d="m162.19 281 5.37-1.13c0-0.15-3.14-14.84-6.47-29.67-3.59-16-19.35-23.4-32.53-21.28-9.86 1.6-20.79 9.29-19.14 25.73 1.76 17.59 3.1 25.88 3.15 26.23l5.43-0.88c0-0.08-1.36-8.5-3.1-25.9-1.27-12.63 6.69-18.49 14.56-19.76 10.65-1.73 23.41 4.19 26.3 17.06 3.3 14.76 6.4 29.42 6.43 29.6z" fill="#263238" style="transform-origin:138.407px 254.782px"/>
<path class="animable" d="m91.6 442.44c-3.54-2.52-7.19-4.82-10.84-7.12s-7.38-4.47-11.13-6.6l-0.52-0.3-0.46 0.35c-2.91 2.18-5.81 4.36-8.62 6.65s-5.65 4.57-8.37 7c3.12-1.88 6.15-3.88 9.15-5.92s6-4.14 8.9-6.27l-1 0.06q5.58 3.27 11.29 6.33c3.84 2 7.65 4.01 11.6 5.82z" fill="#fff" style="transform-origin:71.63px 435.43px"/>
<path class="animable" d="M69.18,429.5c.76-11.15,1.31-22.31,1.84-33.47s.89-22.32,1.35-33.48c.31-11.16.7-22.33.93-33.5l.31-16.75c0-5.59.14-11.17.13-16.76-.4,5.58-.68,11.15-1,16.73L71.89,329c-.52,11.15-.89,22.32-1.34,33.48s-.7,22.33-.93,33.49S69.18,418.32,69.18,429.5Z" fill="#fff" style="transform-origin:71.4603px 362.52px"/>
<path class="animable" d="m157.59 280.4a7.29 7.29 0 1 0 7.29-7.29 7.28 7.28 0 0 0-7.29 7.29z" fill="#263238" style="transform-origin:164.88px 280.4px"/>
<path class="animable" d="m108.55 280.4a7.29 7.29 0 1 0 7.29-7.29 7.28 7.28 0 0 0-7.29 7.29z" fill="#263238" style="transform-origin:115.84px 280.4px"/>
</g>
<g class="animable" style="transform-origin:619.725px 339.537px">
<path class="animable" d="m688.91 275.34c1.39-4.68-0.73-11-12-14.11-17.11-4.72-29.41 13-30.88 15.22 1.58-2.57 16.49-25.92 33.77-21.24 13.68 3.69 12.91 14.24 9.11 20.13z" fill="#455a64" style="transform-origin:668.668px 265.521px"/>
<path class="animable" d="M688.91,275.34a9.22,9.22,0,0,1-4.5,3.92c-6,1.86-19.66,3-37.34-2.23l-1.17-.35.14-.23.09-.13.14,0c18.58,2.7,31.53.72,36.84-1.2,2.08-.75,3.75-3.29,4-6.26a9.14,9.14,0,0,0-.11-2.08A8.89,8.89,0,0,1,688.91,275.34Z" fill="#37474f" style="transform-origin:667.599px 273.8px"/>
<path class="animable" d="m677.79 251c-2.3-5.42-8.53-10.5-19.53-7.18-16.72 5-13.47 29.58-13 32.62-0.63-3.44-5.93-35 10.89-40.23 13.3-4.14 20.34 6.79 21.64 14.79z" fill="#455a64" style="transform-origin:660.883px 255.872px"/>
<path class="animable" d="M677.79,251c.43,2.7.21,5.08-.66,6.44-3.33,5.25-13.12,14.14-30.65,19l-1.17.31s0-.1,0-.31a1.68,1.68,0,0,0,0-.18l.13,0c16.4-7.89,25-17.2,27.78-22.11,1.07-1.94.53-5.39-1.45-8.45a13.7,13.7,0,0,0-1.6-2A13.21,13.21,0,0,1,677.79,251Z" fill="#37474f" style="transform-origin:661.657px 260.225px"/>
<path class="animable" d="m601.56 275.34c-1.39-4.68 0.72-11 12-14.11 17.11-4.72 29.41 13 30.88 15.22-1.57-2.57-16.48-25.92-33.77-21.24-13.67 3.69-12.92 14.24-9.11 20.13z" fill="#455a64" style="transform-origin:621.802px 265.521px"/>
<path class="animable" d="M601.56,275.34a9.2,9.2,0,0,0,4.49,3.92c6,1.86,19.67,3,37.34-2.23l1.18-.35-.15-.23-.08-.13-.15,0c-18.58,2.7-31.52.72-36.83-1.2-2.09-.75-3.76-3.29-4-6.26a8.59,8.59,0,0,1,.1-2.08A8.88,8.88,0,0,0,601.56,275.34Z" fill="#37474f" style="transform-origin:622.869px 273.8px"/>
<path class="animable" d="m611.54 251c2.3-5.42 8.53-10.5 19.53-7.18 16.72 5 13.47 29.58 13 32.62 0.63-3.44 5.93-35-10.89-40.23-13.3-4.14-20.34 6.79-21.64 14.79z" fill="#455a64" style="transform-origin:628.447px 255.872px"/>
<path class="animable" d="M611.54,251c-.43,2.7-.21,5.08.65,6.44,3.34,5.25,13.13,14.14,30.65,19l1.18.31s0-.1.05-.31a1.68,1.68,0,0,1,0-.18l-.13,0c-16.4-7.89-25-17.2-27.78-22.11-1.08-1.94-.54-5.39,1.45-8.45a14.32,14.32,0,0,1,1.59-2A13.16,13.16,0,0,0,611.54,251Z" fill="#37474f" style="transform-origin:627.698px 260.225px"/>
<polygon class="animable" points="681.58 443.77 590.38 443.77 593.72 281.89 672.47 279.08" fill="#823db7" style="transform-origin:635.98px 361.425px"/>
<polygon class="animable" points="681.58 443.77 590.38 443.77 593.72 281.89 672.47 279.08" fill="#fff" opacity=".6" style="transform-origin:635.98px 361.425px"/>
<polygon class="animable" points="700.22 443.77 674.31 443.77 670.34 279.08 697.07 284.06" fill="#823db7" style="transform-origin:685.28px 361.425px"/>
<polygon class="animable" points="589.14 279.32 589.14 301.86 670.34 299.07 670.34 273.28" fill="#823db7" style="transform-origin:629.74px 287.57px"/>
<polygon class="animable" points="589.14 279.32 589.14 301.86 670.34 299.07 670.34 273.28" fill="#fff" opacity=".4" style="transform-origin:629.74px 287.57px"/>
<polygon class="animable" points="700.88 301.86 670.34 299.07 670.34 273.28 702.62 279.32" fill="#823db7" style="transform-origin:686.48px 287.57px"/>
<polygon class="animable" points="700.88 301.86 670.34 299.07 670.34 273.28 702.62 279.32" opacity=".1" style="transform-origin:686.48px 287.57px"/>
<polygon class="animable" points="619.77 277.04 620.82 443.77 642.35 443.77 640.47 275.69" fill="#455a64" style="transform-origin:631.06px 359.73px"/>
<polygon class="animable" points="683.21 275.69 691.3 277.2 691.3 443.77 684.53 443.77" fill="#455a64" style="transform-origin:687.255px 359.73px"/>
<path class="animable" d="M631.53,315.41a11.7,11.7,0,0,1-1.85,5.75c-.06-.39-.14-.79-.24-1.19s-.21-.82-.35-1.25a23.7,23.7,0,0,0-4.48-7.73l-.66-.77-.18-.19h0c-.11-.12-.23-.23-.32-.35-18.14-23-35.41,14.25-35.78,15.11v0s-1-37.15,18.8-38.18C622,285.81,632.44,303.93,631.53,315.41Z" fill="#823db7" style="transform-origin:609.623px 305.687px"/>
<path class="animable" d="M629.68,321.16a7.35,7.35,0,0,1-1.63,1.71c-9.45,7.24-38.49,2.26-40.3,1.94h-.08c27.3,2.62,34.79-7.31,36.1-14.77l.18.19.66.77a23.88,23.88,0,0,1,4.48,7.73c.14.43.25.84.35,1.25S629.62,320.77,629.68,321.16Z" fill="#823db7" style="transform-origin:608.675px 318.408px"/>
<path class="animable" d="M629.68,321.16a7.35,7.35,0,0,1-1.63,1.71c-9.45,7.24-38.49,2.26-40.3,1.94h-.08c27.3,2.62,34.79-7.31,36.1-14.77l.18.19.66.77a23.88,23.88,0,0,1,4.48,7.73c.14.43.25.84.35,1.25S629.62,320.77,629.68,321.16Z" opacity=".2" style="transform-origin:608.675px 318.408px"/>
<path class="animable" d="M543.11,319.63a11.55,11.55,0,0,0,2.39,5.54q0-.59.12-1.2a11.72,11.72,0,0,1,.23-1.27,23.35,23.35,0,0,1,3.73-8.13l.58-.83.16-.21h0c.1-.13.2-.25.29-.38,15.86-24.61,36.6,10.82,37,11.64v0s-2.55-37.07-22.36-36.21C549.79,289.26,541.11,308.29,543.11,319.63Z" fill="#823db7" style="transform-origin:565.218px 306.868px"/>
<path class="animable" d="M545.5,325.17a7.33,7.33,0,0,0,1.78,1.55c10.1,6.31,38.53-1.42,40.3-1.9l.09,0c-26.93,5.21-35.33-4-37.35-11.27l-.16.21-.58.83a23.81,23.81,0,0,0-3.73,8.13c-.1.43-.17.85-.23,1.27S545.52,324.78,545.5,325.17Z" fill="#823db7" style="transform-origin:566.585px 321.368px"/>
<path class="animable" d="M545.5,325.17a7.33,7.33,0,0,0,1.78,1.55c10.1,6.31,38.53-1.42,40.3-1.9l.09,0c-26.93,5.21-35.33-4-37.35-11.27l-.16.21-.58.83a23.81,23.81,0,0,0-3.73,8.13c-.1.43-.17.85-.23,1.27S545.52,324.78,545.5,325.17Z" opacity=".2" style="transform-origin:566.585px 321.368px"/>
<polygon class="animable" points="629.68 443.77 537.46 443.77 540.11 334.22 630.24 332.88" fill="#455a64" style="transform-origin:583.85px 388.325px"/>
<polygon class="animable" points="662.69 443.77 629.68 443.77 627.78 332.88 660.54 335.62" fill="#37474f" style="transform-origin:645.235px 388.325px"/>
<polygon class="animable" points="536.83 329.07 536.83 352.33 627.78 349.57 627.78 322.95" fill="#37474f" style="transform-origin:582.305px 337.64px"/>
<polygon class="animable" points="663.13 352.44 627.78 349.57 627.78 322.95 665.14 329.19" fill="#263238" style="transform-origin:646.46px 337.695px"/>
<polygon class="animable" points="595.74 443.77 573.65 443.77 571.42 326.69 597.51 324.96" fill="#823db7" style="transform-origin:584.465px 384.365px"/>
<polygon class="animable" points="645.9 443.77 653.42 443.77 652.75 327.12 642.25 325.37" fill="#823db7" style="transform-origin:647.835px 384.57px"/>
</g>
<g class="animable" style="transform-origin:375.025px 277.83px">
<rect class="animable" x="127.44" y="112.52" width="495.11" height="331.25" rx="12.89" fill="#263238" style="transform-origin:374.995px 278.145px"/>
<rect class="animable" x="162.1" y="126.5" width="426.11" height="302.91" fill="#fff" style="transform-origin:375.155px 277.955px"/>
<rect class="animable" x="144.98" y="242.11" width="5.15" height="72.09" rx="1.25" fill="#455a64" style="transform-origin:147.555px 278.155px"/>
<circle class="animable" cx="604.94" cy="278.15" r="9.32" fill="#455a64" style="transform-origin:604.94px 278.15px;transform:rotate(-76.66deg)"/>
<rect class="animable" x="162.1" y="126.5" width="426.11" height="302.91" fill="#fff" style="transform-origin:375.155px 277.955px"/>
<rect class="animable" x="162.1" y="126.5" width="426.11" height="10.41" fill="#455a64" style="transform-origin:375.155px 131.705px"/>
<path class="animable" d="m170.31 131.7a2.13 2.13 0 1 1-2.13-2.13 2.13 2.13 0 0 1 2.13 2.13z" fill="#c7c7c7" style="transform-origin:168.18px 131.7px"/>
<circle class="animable" cx="176.89" cy="131.7" r="2.13" fill="#fff" style="transform-origin:176.89px 131.7px"/>
<circle class="animable" cx="185.6" cy="131.7" r="2.13" fill="#823db7" style="transform-origin:185.6px 131.7px"/>
<rect class="animable" x="448.53" y="228.53" width="112.35" height="144.88" fill="#fff" style="transform-origin:504.705px 300.97px"/>
<path class="animable" d="M560.88,373.41c-.09,0-112.37.09-112.46.11s-.12-144.94-.14-145v-.25h.25c.13,0,112.38.12,112.49.1s-.23,144.92-.14,145Zm0,0-.14-144.88c1,.28-112.46.2-112.21.24l.25-.24-.14,144.88c-.74-.15,112.43,0,112.24,0Z" fill="#c7c7c7" style="transform-origin:504.661px 300.895px"/>
<rect class="animable" x="451.94" y="231.47" width="105.54" height="105.54" fill="#ebebeb" style="transform-origin:504.71px 284.24px"/>
<polygon class="animable" points="525.45 240.99 525.45 245.83 504.71 245.82 504.71 245.83 483.97 245.83 483.97 240.99" fill="#455a64" style="transform-origin:504.71px 243.41px"/>
<path class="animable" d="m519.42 248.77h6v6.82c-5.9-0.32-6-6.82-6-6.82z" fill="#455a64" style="transform-origin:522.42px 252.18px"/>
<path class="animable" d="m525.45 258.94v68.56h-16l-4.71-63.42-4.74 63.42h-16v-68.56c2.68-0.46 9.07-2.38 9.07-10.17h9.93c0 5.34-0.15 10 1.72 10.06 1.88 0 1.73-4.72 1.73-10.06h9.94c-0.01 7.79 6.38 9.71 9.06 10.17z" fill="#455a64" style="transform-origin:504.725px 288.135px"/>
<path class="animable" d="m484 255.59v-6.82h6s-0.11 6.5-6 6.82z" fill="#455a64" style="transform-origin:487px 252.18px"/>
<path class="animable" d="m548.3 245.27c-5.31-3.36-5.11-7.44-3.66-8.3 1.81-1.05 3.2 0.83 3.66 2.64 0.46-1.81 1.85-3.69 3.63-2.64 1.45 0.86 1.65 4.94-3.63 8.3z" fill="#823db7" style="transform-origin:548.286px 240.969px"/>
<rect class="animable" x="518.46" y="357.25" width="39.02" height="10.39" fill="#fff" style="transform-origin:537.97px 362.445px"/>
<path class="animable" d="M557.48,367.64c-9.73.08-29.29.19-39,.22h-.21v-.22l0-10.39V357h.25l39.12.15v.1l-.1,10.39Zm0,0-.1-10.39.1.1-39,.15.25-.25,0,10.39-.21-.21,19.45.07,19.57.14Z" fill="#c7c7c7" style="transform-origin:537.955px 362.43px"/>
<path class="animable" d="M451.94,343c16.56-.67,33.26-.67,49.83,0-16.57.67-33.26.67-49.83,0Z" fill="#c7c7c7" style="transform-origin:476.855px 343px"/>
<path class="animable" d="M451.94,348.77c23.08-.32,48.47-.33,71.56,0-23.09.33-48.48.33-71.56,0Z" fill="#c7c7c7" style="transform-origin:487.72px 348.772px"/>
<rect class="animable" x="189.12" y="228.53" width="112.35" height="144.88" fill="#fff" style="transform-origin:245.295px 300.97px"/>
<path class="animable" d="M301.47,373.41c-.09,0-112.37.09-112.46.11s-.12-144.94-.14-145v-.25h.25c.12,0,112.37.12,112.49.1s-.24,144.92-.14,145Zm0,0-.14-144.88c1,.28-112.46.2-112.21.24l.25-.24-.14,144.88c-.74-.15,112.43,0,112.24,0Z" fill="#c7c7c7" style="transform-origin:245.252px 300.895px"/>
<rect class="animable" x="192.52" y="231.47" width="105.54" height="105.54" fill="#ebebeb" style="transform-origin:245.29px 284.24px"/>
<path class="animable" d="M273.35,315.69H217.24l.16-2.32.13-1.71.15-2,.12-1.73.15-2,.13-1.73.15-2,.12-1.71,3.47-47.62H231a14.26,14.26,0,0,0,28.51,0h9.22l3.46,47.62.13,1.71.15,2,.12,1.73.15,2,.13,1.73.15,2,.12,1.71Z" fill="#455a64" style="transform-origin:245.295px 284.28px"/>
<polygon class="animable" points="221.82 252.8 204.64 274.11 219.37 286.4" fill="#263238" style="transform-origin:213.23px 269.6px"/>
<polygon class="animable" points="268.77 252.8 285.95 274.11 271.21 286.4" fill="#263238" style="transform-origin:277.36px 269.6px"/>
<path class="animable" d="m288.89 245.27c-5.32-3.36-5.12-7.44-3.67-8.3 1.82-1.05 3.21 0.83 3.67 2.64 0.46-1.81 1.85-3.69 3.63-2.64 1.48 0.86 1.65 4.94-3.63 8.3z" fill="#823db7" style="transform-origin:288.878px 240.969px"/>
<rect class="animable" x="259.05" y="357.25" width="39.02" height="10.39" fill="#fff" style="transform-origin:278.56px 362.445px"/>
<path class="animable" d="M298.06,367.64c-9.72.08-29.29.19-39,.22h-.22v-.22l0-10.39V357h.25l39.12.15v.1l-.11,10.39Zm0,0-.1-10.39.1.1-39,.15.25-.25,0,10.39-.21-.21,19.45.07,19.56.14Z" fill="#c7c7c7" style="transform-origin:278.525px 362.43px"/>
<path class="animable" d="M192.52,343c16.57-.67,33.26-.67,49.84,0-16.58.67-33.27.67-49.84,0Z" fill="#c7c7c7" style="transform-origin:217.44px 343px"/>
<path class="animable" d="M192.52,348.77c23.09-.32,48.48-.33,71.56,0-23.08.33-48.47.33-71.56,0Z" fill="#c7c7c7" style="transform-origin:228.3px 348.772px"/>
<rect class="animable" x="318.83" y="228.53" width="112.35" height="144.88" fill="#fff" style="transform-origin:375.005px 300.97px"/>
<path class="animable" d="M431.18,373.41c-.1,0-112.38.09-112.46.11s-.12-144.94-.14-145v-.25h.25c.12,0,112.37.12,112.49.1s-.24,144.92-.14,145Zm0,0L431,228.53c1,.28-112.45.2-112.2.24l.24-.24-.14,144.88c-.73-.15,112.44,0,112.25,0Z" fill="#c7c7c7" style="transform-origin:374.962px 300.895px"/>
<rect class="animable" x="388.75" y="357.25" width="39.02" height="10.39" fill="#fff" style="transform-origin:408.26px 362.445px"/>
<path class="animable" d="M427.77,367.64c-9.72.08-29.29.19-39,.22h-.21v-.22l0-10.39V357h.25l39.13.15v.1l-.1,10.39Zm0,0-.1-10.39.1.1-39,.15.25-.25,0,10.39-.22-.21,19.46.07,19.56.14Z" fill="#c7c7c7" style="transform-origin:408.25px 362.43px"/>
<path class="animable" d="M322.23,343c16.57-.67,33.26-.67,49.83,0-16.57.67-33.26.67-49.83,0Z" fill="#c7c7c7" style="transform-origin:347.145px 343px"/>
<path class="animable" d="M322.23,348.77c23.08-.32,48.47-.33,71.56,0-23.09.33-48.48.33-71.56,0Z" fill="#c7c7c7" style="transform-origin:358.01px 348.772px"/>
<rect class="animable" x="322.23" y="231.47" width="105.54" height="105.54" fill="#ebebeb" style="transform-origin:375px 284.24px"/>
<path class="animable" d="m418.59 245.27c-5.31-3.36-5.11-7.44-3.66-8.3 1.82-1.05 3.2 0.83 3.66 2.64 0.47-1.81 1.85-3.69 3.63-2.64 1.46 0.86 1.65 4.94-3.63 8.3z" fill="#823db7" style="transform-origin:418.578px 240.969px"/>
<path class="animable" d="m389.09 287.54c-7.47 1.16-11.24-3.5-11.24-3.5h-5.7s-3.78 4.66-11.24 3.49-10.08-9.59-7.46-15.6 3.74-6.69 4.55-9.11c0.92-2.78 2.91-11.44 3.88-12.13s3.23 0 3.16 1.07-3.42 14.41-3 15.13 5 3.43 7 6.07 3.49 6.53 5.95 6.53 3.88-3.88 5.95-6.53 6.65-5.36 7-6.07-3-14-3-15.13 2.2-1.74 3.17-1.06 3 9.34 3.88 12.12c0.8 2.42 1.94 3.1 4.55 9.11s0.01 14.45-7.45 15.61z" fill="#823db7" style="transform-origin:374.994px 269.069px"/>
<path class="animable" d="M397.54,301.4c-.59.1-8.93,2-13.19,6.49s-5.92,9.21-6.4,9.69-2.95.49-2.95.49-2.46,0-2.94-.49-2.14-5.22-6.41-9.69-12.59-6.39-13.19-6.49-.28-5.92.79-5.53c6.08,2.21,20.94,2.43,21.75,2.43s15.67-.22,21.75-2.42C397.82,295.49,398.14,301.31,397.54,301.4Z" fill="#823db7" style="transform-origin:375px 306.961px"/>
<path class="animable" d="m359.33 300.51a1.39 1.39 0 1 1-1.39-1.39 1.39 1.39 0 0 1 1.39 1.39z" fill="#823db7" style="transform-origin:357.94px 300.51px"/>
<path class="animable" d="m367.87 300.51a1.4 1.4 0 1 1-1.4-1.39 1.4 1.4 0 0 1 1.4 1.39z" fill="#823db7" style="transform-origin:366.47px 300.52px"/>
<path class="animable" d="m372.12 306.83a1.39 1.39 0 1 1-1.39-1.39 1.4 1.4 0 0 1 1.39 1.39z" fill="#823db7" style="transform-origin:370.73px 306.83px"/>
<path class="animable" d="m376.4 313.2a1.4 1.4 0 1 1-1.39-1.39 1.4 1.4 0 0 1 1.39 1.39z" fill="#823db7" style="transform-origin:375px 313.21px"/>
<path class="animable" d="m376.4 300.51a1.4 1.4 0 1 1-1.39-1.39 1.39 1.39 0 0 1 1.39 1.39z" fill="#823db7" style="transform-origin:375px 300.52px"/>
<path class="animable" d="m380.65 306.83a1.39 1.39 0 1 1-1.39-1.39 1.4 1.4 0 0 1 1.39 1.39z" fill="#823db7" style="transform-origin:379.26px 306.83px"/>
<path class="animable" d="m384.93 300.51a1.4 1.4 0 1 1-1.39-1.39 1.39 1.39 0 0 1 1.39 1.39z" fill="#823db7" style="transform-origin:383.53px 300.52px"/>
<path class="animable" d="m393.44 300.51a1.38 1.38 0 1 1-1.37-1.39 1.38 1.38 0 0 1 1.37 1.39z" fill="#823db7" style="transform-origin:392.06px 300.5px"/>
<path class="animable" d="m359.33 300.51a1.39 1.39 0 1 1-1.39-1.39 1.39 1.39 0 0 1 1.39 1.39zm7.14-1.39a1.39 1.39 0 1 0 1.4 1.39 1.39 1.39 0 0 0-1.4-1.39zm8.54 0a1.39 1.39 0 1 0 1.39 1.39 1.4 1.4 0 0 0-1.4-1.39zm8.53 0a1.39 1.39 0 1 0 1.39 1.39 1.4 1.4 0 0 0-1.39-1.39zm8.53 0a1.39 1.39 0 1 0 1.37 1.39 1.39 1.39 0 0 0-1.37-1.39zm-17.07 12.69a1.4 1.4 0 1 0 1.39 1.39 1.4 1.4 0 0 0-1.39-1.39zm-4.28-6.37a1.4 1.4 0 1 0 1.39 1.39 1.39 1.39 0 0 0-1.38-1.39zm8.53 0a1.4 1.4 0 1 0 1.39 1.39 1.39 1.39 0 0 0-1.38-1.39z" fill="#fff" style="transform-origin:374.995px 306.865px"/>
<path class="animable" d="m359.33 263.75a1.39 1.39 0 0 1-1.39 1.39 1.27 1.27 0 0 1-0.85-0.31 12.9 12.9 0 0 0 0.92-2c0.05-0.13 0.08-0.27 0.13-0.44a1.39 1.39 0 0 1 1.19 1.36zm32.67-0.94c-0.05-0.13-0.08-0.26-0.14-0.42a1.34 1.34 0 0 0-1.18 1.36 1.39 1.39 0 0 0 1.39 1.39 1.26 1.26 0 0 0 0.83-0.31 12.86 12.86 0 0 1-0.9-2.02zm-29.8-6.81a1.39 1.39 0 1 0 1.39 1.39 1.39 1.39 0 0 0-1.39-1.39zm25.6 0a1.39 1.39 0 1 0 1.39 1.39 1.39 1.39 0 0 0-1.39-1.39zm-29.86 19a1.39 1.39 0 1 0 1.39 1.39 1.39 1.39 0 0 0-1.39-1.39zm8.53 0a1.39 1.39 0 1 0 1.39 1.39 1.39 1.39 0 0 0-1.39-1.39zm17.06 0a1.39 1.39 0 1 0 1.39 1.39 1.39 1.39 0 0 0-1.39-1.39zm8.53 0a1.39 1.39 0 1 0 1.39 1.39 1.39 1.39 0 0 0-1.39-1.39zm-37.34-5.87c-0.32 0.65-0.68 1.41-1.05 2.27a1.37 1.37 0 0 0 1.05-2.27zm7.48-0.5a1.39 1.39 0 1 0 1.39 1.39 1.39 1.39 0 0 0-1.39-1.35zm25.6 0a1.39 1.39 0 1 0 1.39 1.39 1.39 1.39 0 0 0-1.39-1.35zm7.48 0.5a1.36 1.36 0 0 0 1.05 2.27c-0.33-0.82-0.72-1.58-1.05-2.23zm-41.61 12.18a1.14 1.14 0 0 0-0.33 0 11.08 11.08 0 0 0 1.29 2.34 1.33 1.33 0 0 0 0.43-1 1.39 1.39 0 0 0-1.39-1.3zm8.53 0a1.39 1.39 0 1 0 1.39 1.39 1.39 1.39 0 0 0-1.39-1.34zm8.53 0a1.39 1.39 0 1 0 1.4 1.39 1.39 1.39 0 0 0-1.4-1.34zm8.54 0a1.39 1.39 0 1 0 1.39 1.39 1.4 1.4 0 0 0-1.39-1.34zm8.53 0a1.39 1.39 0 1 0 1.39 1.39 1.39 1.39 0 0 0-1.39-1.34zm8.53 0a1.4 1.4 0 0 0-1.4 1.39 1.36 1.36 0 0 0 0.43 1 9.19 9.19 0 0 0 1.29-2.34 1.07 1.07 0 0 0-0.32-0.01z" fill="#fff" style="transform-origin:374.995px 270.045px"/>
<rect class="animable" x="250.62" y="187.06" width="248.75" height="13.97" fill="#fff" style="transform-origin:374.995px 194.045px"/>
<path class="animable" d="m499.52 201.17h-249v-14.26h249z" fill="#fff" style="transform-origin:375.02px 194.04px"/>
<path class="animable" d="M499.52,201.17c-.23-.23-249.52.68-249.27,0V186.91c-.24-.68,249.07.18,249.3,0l0,14.26Zm0,0,0-14.26c.16-.17-250.07.69-248.77,0l0,14.26c-1.58-.65,249.22.22,248.81,0Z" fill="#c7c7c7" style="transform-origin:374.905px 194.036px"/>
<path class="animable" d="M494.48,197.18l-1,.78-1.91-2.53-.71-.92a1.66,1.66,0,0,0,.41-.23,1.63,1.63,0,0,0,.53-.69l.74,1Z" fill="#c7c7c7" style="transform-origin:492.67px 195.775px"/>
<path class="animable" d="m492.45 191.23a2.84 2.84 0 1 0 0.06 3.34 2.81 2.81 0 0 0-0.06-3.34zm-1.21 3.05a1.66 1.66 0 0 1-0.41 0.23 1.68 1.68 0 1 1 0.94-0.92 1.63 1.63 0 0 1-0.53 0.69z" fill="#c7c7c7" style="transform-origin:490.187px 192.941px"/>
<rect class="animable" x="253.55" y="189.8" width=".75" height="8.48" fill="#c7c7c7" style="transform-origin:253.925px 194.04px"/>
<rect class="animable" x="192.52" y="188.26" width="11.47" height="1.74" fill="#c7c7c7" style="transform-origin:198.255px 189.13px"/>
<rect class="animable" x="192.52" y="198.08" width="11.47" height="1.74" fill="#c7c7c7" style="transform-origin:198.255px 198.95px"/>
<rect class="animable" x="192.52" y="193.22" width="11.47" height="1.74" fill="#c7c7c7" style="transform-origin:198.255px 194.09px"/>
<path class="animable" d="M552.6,197.61H541.77a.49.49,0,0,1-.45-.33l-3.09-9.46h-2.52a.47.47,0,1,1,0-.94h2.86a.47.47,0,0,1,.45.32l3.09,9.46H552.6a.47.47,0,0,1,.47.47A.48.48,0,0,1,552.6,197.61Z" fill="#823db7" style="transform-origin:544.155px 192.245px"/>
<path class="animable" d="M551.55,201.21a1.52,1.52,0,1,1,1.52-1.52A1.53,1.53,0,0,1,551.55,201.21Zm0-2.1a.58.58,0,1,0,.57.58A.58.58,0,0,0,551.55,199.11Z" fill="#823db7" style="transform-origin:551.55px 199.69px"/>
<path class="animable" d="M542.61,201.21a1.52,1.52,0,1,1,1.52-1.52A1.53,1.53,0,0,1,542.61,201.21Zm0-2.1a.58.58,0,1,0,.57.58A.58.58,0,0,0,542.61,199.11Z" fill="#823db7" style="transform-origin:542.61px 199.69px"/>
<polygon class="animable" points="555.2 188.57 552.79 196.13 542.57 196.13 540.16 188.57 548.14 188.58" fill="#823db7" style="transform-origin:547.68px 192.35px"/>
<circle class="animable" cx="554.44" cy="188.3" r="3.04" fill="#455a64" style="transform-origin:554.44px 188.3px"/>
<path class="animable" d="M555.07,188a1.05,1.05,0,0,1,.31.75,1.07,1.07,0,0,1-.31.76,1.07,1.07,0,0,1-1.51,0,.25.25,0,0,1,0-.34.24.24,0,0,1,.35,0,.55.55,0,0,0,.4.16.61.61,0,0,0,.42-.16.63.63,0,0,0,.17-.42.58.58,0,0,0-.58-.57.25.25,0,0,1-.18-.08h0a.24.24,0,0,1,0-.34l.44-.44h-.7a.25.25,0,0,1,0-.49h1.27a.24.24,0,0,1,.24.24.27.27,0,0,1,0,.12.21.21,0,0,1,0,.06l-.54.55A1.25,1.25,0,0,1,555.07,188Z" fill="#fff" style="transform-origin:554.445px 188.326px"/>
<polygon class="animable" points="661.58 145.56 88.42 145.56 132.66 111.89 615.55 111.89" fill="#823db7" style="transform-origin:375px 128.725px"/>
<polygon class="animable" points="213.26 111.89 176.6 145.56 132.51 145.56 172.54 111.89" fill="#ebebeb" style="transform-origin:172.885px 128.725px"/>
<polygon class="animable" points="291.29 111.89 264.78 145.56 220.69 145.56 252.2 111.89" fill="#ebebeb" style="transform-origin:255.99px 128.725px"/>
<polygon class="animable" points="357.53 111.89 352.95 145.56 308.87 145.56 322.93 111.89" fill="#ebebeb" style="transform-origin:333.2px 128.725px"/>
<polygon class="animable" points="573.4 145.56 535.35 111.89 576.07 111.89 617.49 145.56" fill="#ebebeb" style="transform-origin:576.42px 128.725px"/>
<polygon class="animable" points="485.22 145.56 461.7 111.89 497.58 111.89 529.31 145.56" fill="#ebebeb" style="transform-origin:495.505px 128.725px"/>
<polygon class="animable" points="397.05 145.56 390.58 111.89 425.2 111.89 441.13 145.56" fill="#ebebeb" style="transform-origin:415.855px 128.725px"/>
<path class="animable" d="m110.46 167.87a22 22 0 0 1-22-22v-0.27h44.09v0.27a22 22 0 0 1-22.09 22z" fill="#823db7" style="transform-origin:110.505px 156.735px"/>
<path class="animable" d="m110.46 167.87a22 22 0 0 1-22-22v-0.27h44.09v0.27a22 22 0 0 1-22.09 22z" opacity=".1" style="transform-origin:110.505px 156.735px"/>
<path class="animable" d="m154.55 167.87a22 22 0 0 1-22-22v-0.27h44.05v0.27a22 22 0 0 1-22.05 22z" fill="#dbdbdb" style="transform-origin:154.575px 156.735px"/>
<path class="animable" d="m198.64 167.87a22 22 0 0 1-22-22v-0.27h44.09v0.27a22 22 0 0 1-22.09 22z" fill="#823db7" style="transform-origin:198.685px 156.735px"/>
<path class="animable" d="m198.64 167.87a22 22 0 0 1-22-22v-0.27h44.09v0.27a22 22 0 0 1-22.09 22z" opacity=".1" style="transform-origin:198.685px 156.735px"/>
<path class="animable" d="m242.73 167.87a22 22 0 0 1-22-22v-0.27h44.09v0.27a22 22 0 0 1-22.09 22z" fill="#dbdbdb" style="transform-origin:242.775px 156.735px"/>
<path class="animable" d="m286.82 167.87a22 22 0 0 1-22-22v-0.27h44.09v0.27a22 22 0 0 1-22.09 22z" fill="#823db7" style="transform-origin:286.865px 156.735px"/>
<path class="animable" d="m286.82 167.87a22 22 0 0 1-22-22v-0.27h44.09v0.27a22 22 0 0 1-22.09 22z" opacity=".1" style="transform-origin:286.865px 156.735px"/>
<path class="animable" d="m330.91 167.87a22 22 0 0 1-22-22v-0.27h44.09v0.27a22 22 0 0 1-22.09 22z" fill="#dbdbdb" style="transform-origin:330.955px 156.735px"/>
<path class="animable" d="m375 167.87a22 22 0 0 1-22-22v-0.27h44v0.27a22 22 0 0 1-22 22z" fill="#823db7" style="transform-origin:375px 156.735px"/>
<path class="animable" d="m375 167.87a22 22 0 0 1-22-22v-0.27h44v0.27a22 22 0 0 1-22 22z" opacity=".1" style="transform-origin:375px 156.735px"/>
<path class="animable" d="m419.09 167.87a22 22 0 0 1-22-22v-0.27h44.09v0.27a22 22 0 0 1-22.09 22z" fill="#dbdbdb" style="transform-origin:419.135px 156.735px"/>
<path class="animable" d="m463.18 167.87a22 22 0 0 1-22.05-22v-0.27h44.09v0.27a22 22 0 0 1-22.04 22z" fill="#823db7" style="transform-origin:463.175px 156.735px"/>
<path class="animable" d="m463.18 167.87a22 22 0 0 1-22.05-22v-0.27h44.09v0.27a22 22 0 0 1-22.04 22z" opacity=".1" style="transform-origin:463.175px 156.735px"/>
<path class="animable" d="m507.27 167.87a22 22 0 0 1-22-22v-0.27h44.09v0.27a22 22 0 0 1-22.09 22z" fill="#dbdbdb" style="transform-origin:507.315px 156.735px"/>
<path class="animable" d="m551.36 167.87a22 22 0 0 1-22.05-22v-0.27h44.09v0.27a22 22 0 0 1-22.04 22z" fill="#823db7" style="transform-origin:551.355px 156.735px"/>
<path class="animable" d="m551.36 167.87a22 22 0 0 1-22.05-22v-0.27h44.09v0.27a22 22 0 0 1-22.04 22z" opacity=".1" style="transform-origin:551.355px 156.735px"/>
<path class="animable" d="m595.45 167.87a22 22 0 0 1-22.05-22v-0.27h44.09v0.27a22 22 0 0 1-22.04 22z" fill="#dbdbdb" style="transform-origin:595.445px 156.735px"/>
<path class="animable" d="m639.54 167.87a22 22 0 0 1-22-22v-0.27h44.09v0.27a22 22 0 0 1-22.09 22z" fill="#823db7" style="transform-origin:639.585px 156.735px"/>
<path class="animable" d="m639.54 167.87a22 22 0 0 1-22-22v-0.27h44.09v0.27a22 22 0 0 1-22.09 22z" opacity=".1" style="transform-origin:639.585px 156.735px"/>
<path class="animable" d="M658.67,158.45l.08.15a.27.27,0,0,1-.08-.07l-.13-.08Z" fill="#823db7" style="transform-origin:658.645px 158.525px"/>
</g>
<g class="animable" style="transform-origin:124.944px 180.276px">
<path class="animable" d="m171 217.76a84.4 84.4 0 0 1 22-1.16c9.86 1 18.93 6.67 19.8 12.48 0.45 3-1.42 5.54-5.28 7.14-12.14 5.07-35.8-16.62-36.8-17.55l-0.72-0.67zm21.93-0.1a82.22 82.22 0 0 0-20.67 1c4.27 3.76 24.56 20.95 34.89 16.64 3.41-1.42 5-3.5 4.64-6a8.5 8.5 0 0 0-2.35-4.27c-3.14-3.51-9.23-6.67-16.44-7.37z" fill="#263238" style="transform-origin:191.433px 226.664px"/>
<path class="animable" d="M78,116.25a3.4,3.4,0,0,1,4.7-1.07L178,175a3.47,3.47,0,0,1,1.58,2.56l3.35,33.33.06.48.07.87,0,.38,1.27,12.62a3.39,3.39,0,0,1-2.22,3.55l-12,4.38-1.08.39-31.9,11.61a3.42,3.42,0,0,1-3-.31L38.86,185a3.41,3.41,0,0,1-1.08-4.72Z" fill="#fff" style="transform-origin:110.8px 180.018px"/>
<path class="animable" d="M50.33,160.57l-6.92,11.08L40,177.19,38.22,180a4.53,4.53,0,0,0-.68,1.4,3.3,3.3,0,0,0,0,1.53,3.24,3.24,0,0,0,.7,1.35,5,5,0,0,0,1.25.94l2.77,1.73,5.54,3.46,11.08,6.92L103.2,225l22.16,13.83,5.54,3.46,2.77,1.73.69.44a3.34,3.34,0,0,0,.63.31,3.08,3.08,0,0,0,1.38.13,3.66,3.66,0,0,0,.68-.19l.77-.28,1.53-.56,3.07-1.13,6.13-2.24,24.58-8.87,6.14-2.22c1-.37,2.09-.74,3-1.11a3,3,0,0,0,1.64-2.2,2.41,2.41,0,0,0,0-.71l-.08-.8-.16-1.63-.32-3.25-.64-6.5-2.53-26-.64-6.5-.32-3.23a3.24,3.24,0,0,0-1.69-2.37l-11.05-7-44.18-27.89-22.09-13.94-11-7-5.53-3.49A15.09,15.09,0,0,0,82.3,115,3.41,3.41,0,0,0,78,116.25Zm30.38-45.92a3.51,3.51,0,0,1,1.6.3c.49.23.93.56,1.4.83l5.54,3.46,11.08,6.92L122.49,140l44.33,27.67,11.08,6.91a3.87,3.87,0,0,1,2,2.78l.34,3.26.67,6.5,2.67,26,.67,6.5.34,3.24.16,1.63.09.82a4.07,4.07,0,0,1,0,.92,3.82,3.82,0,0,1-2.11,2.84c-1.09.45-2.06.77-3.1,1.16l-6.13,2.25-24.52,9-6.15,2.22-3.07,1.11-1.53.55-.77.28a4.31,4.31,0,0,1-.89.23,4,4,0,0,1-1.84-.18,4.58,4.58,0,0,1-.83-.41l-.69-.44-2.76-1.74-5.53-3.49-22.09-14L58.6,197.74l-11.05-7L42,187.28l-2.76-1.75a5.6,5.6,0,0,1-1.34-1,3.84,3.84,0,0,1-.78-1.53,3.8,3.8,0,0,1,0-1.71,4.83,4.83,0,0,1,.74-1.51L39.64,177l3.49-5.52,7-11L78,116.25A3.4,3.4,0,0,1,80.71,114.65Z" fill="#ebebeb" style="transform-origin:110.944px 180.276px"/>
<path class="animable" d="M171.86,214.74a4.56,4.56,0,0,0-.9-.79s-.06,0-.09-.07h0a4.51,4.51,0,0,0-4.79,7.65l.08.05a5.12,5.12,0,0,0,.75.36,2.14,2.14,0,0,0,.47.15,4.52,4.52,0,0,0,4.5-7.35Z" fill="#fff" style="transform-origin:168.474px 217.707px"/>
<path class="animable" d="M172.34,220.38a4.86,4.86,0,0,1-2.41,2,4.66,4.66,0,0,1-3.23,0h0l-.47-.21-.44-.21h0l0,0a4.84,4.84,0,0,1-2.21-3.15,4.79,4.79,0,0,1,.77-3.69,4.74,4.74,0,0,1,3.07-2,4.89,4.89,0,0,1,3.45.7h0s.06,0,.09.07h0a4.51,4.51,0,0,1,.89.8A4.82,4.82,0,0,1,172.34,220.38ZM171,214h0s-.06,0-.09-.06h0a4.22,4.22,0,0,0-3.37-.45,4.3,4.3,0,0,0-2.57,2,4.36,4.36,0,0,0-.37,3.12,4.26,4.26,0,0,0,1.79,2.5l0,0,.4.2.36.19h0a4.19,4.19,0,0,0,4.91-1.33,4.19,4.19,0,0,0,.9-2.7,4.34,4.34,0,0,0-1-2.71A4.52,4.52,0,0,0,171,214Z" fill="#ebebeb" style="transform-origin:168.266px 217.86px"/>
<path class="animable" d="m80.14 123-35.34 56.3a3.39 3.39 0 0 0 1.2 4.64l87.66 55a3.47 3.47 0 0 0 3 0.37l40.59-13.76a3.22 3.22 0 0 0 2.17-3.45l-1.19-9.62-0.13-1-4-31.88a3.51 3.51 0 0 0-1.62-2.52l-87.66-55a3.39 3.39 0 0 0-4.68 0.92zm4.36-0.45 87.66 55a2.9 2.9 0 0 1 1.34 2.09l3.93 31.88 0.14 1.06 1.18 9.59a2.6 2.6 0 0 1-1.75 2.83l-40.6 13.77a2.9 2.9 0 0 1-2.46-0.31l-87.66-55a2.78 2.78 0 0 1-1-3.81l35.34-56.29a2.78 2.78 0 0 1 3.88-0.8z" fill="#263238" style="transform-origin:111.888px 180.505px"/>
<path class="animable" d="m66.39 164.64a2.28 2.28 0 0 1 2.81 1.3 11.23 11.23 0 0 0 4.8 6.55 10.16 10.16 0 0 0 5.48 1.43 5 5 0 0 0 3.52-1.39 2.16 2.16 0 0 0 0.56-1.22 3.11 3.11 0 0 0-0.29-1.61 14 14 0 0 0-3.64-4.48 20.06 20.06 0 0 1-3.54-4 7 7 0 0 1-1.24-4.5 6 6 0 0 1 1.42-3.1 9.6 9.6 0 0 1 6.93-3 14.11 14.11 0 0 1 7.68 1.92c3.47 2 4.69 5.05 5.63 7.19a2 2 0 0 1-1.43 2.59 2.25 2.25 0 0 1-2.93-1c-0.93-2.14-1.87-4.19-4.07-5.43a9 9 0 0 0-5-1.34 4.38 4.38 0 0 0-3.12 1.25 1.73 1.73 0 0 0-0.47 1.07 2.7 2.7 0 0 0 0.23 1.38 12.42 12.42 0 0 0 3.28 4.07h0.07a20.07 20.07 0 0 1 3.85 4.3 7.58 7.58 0 0 1 1.29 4.74 6 6 0 0 1-1.53 3.28 10.18 10.18 0 0 1-7.31 3.21 15.19 15.19 0 0 1-8.22-2.09 14.75 14.75 0 0 1-6.49-8.68 2.12 2.12 0 0 1 1.73-2.44z" fill="#823db7" style="transform-origin:80.6237px 164.234px"/>
<path class="animable" d="M88.6,184.24a2.9,2.9,0,0,1-2.93.07,2.86,2.86,0,0,1-.64-.52,2.12,2.12,0,0,1,.86-3.08L110.7,166a2.9,2.9,0,0,1,3-.05,1.94,1.94,0,0,1,1,2.35l-8.46,24.33a2.84,2.84,0,0,1-3.23,1.68,3.11,3.11,0,0,1-.8-.32,1.9,1.9,0,0,1-.89-2.31l1.84-5.34-9-5.29Zm16.06-2.45,3.08-8.89-9,5.39Z" fill="#823db7" style="transform-origin:99.7385px 179.966px"/>
<path class="animable" d="M109.88,195.65l16.64-19.53a2.88,2.88,0,0,1,3.6-.62,1.91,1.91,0,0,1,.47,3l-15.08,17.71,10,5.88a2,2,0,0,1,.51,3,3,3,0,0,1-3.65.63l-12-7s0,0,0-.06a0,0,0,0,1-.06,0A1.93,1.93,0,0,1,109.88,195.65Z" fill="#823db7" style="transform-origin:120.231px 190.602px"/>
<path class="animable" d="m129.52 207.42 16.65-19.56a2.94 2.94 0 0 1 3.6-0.62l12 7a1.94 1.94 0 0 1 0.51 3 3 3 0 0 1-3.62 0.66l-10-5.88-5.21 6.09 8.65 5.08a1.9 1.9 0 0 1 0.47 3 2.89 2.89 0 0 1-3.6 0.62l-8.61-5.06-5.19 6.25 10 5.88a2 2 0 0 1 0.49 3.07 3 3 0 0 1-3.6 0.63l-12-7.06a2 2 0 0 1-0.54-3.1z" fill="#823db7" style="transform-origin:145.892px 202.401px"/>
<path class="animable" d="M170,218l.75.7c.12.12.6.56,1.38,1.24a5.68,5.68,0,0,0,.29.26,122.08,122.08,0,0,0,10.14,7.9l.39.27.36.26a3.48,3.48,0,0,0,.78-.8l-.35-.24-.37-.26a125.83,125.83,0,0,1-10.54-8.18.28.28,0,0,0-.1-.09s-.08-.07-.11-.11l-.36-.31.48-.09a3.78,3.78,0,0,0,.12-1.07v0c-1.16.19-1.83.32-1.85.33Z" fill="#263238" style="transform-origin:177.045px 223.055px"/>
</g>
<g class="animable" style="transform-origin:597.525px 117.926px">
<path class="animable" d="M701.2,78,685.54,185.2a11,11,0,0,1-12.43,9.27l-170-24.83a11,11,0,0,1-9.26-12.44L509.5,50a10.2,10.2,0,0,1,11.57-8.62l171.51,25A10.22,10.22,0,0,1,701.2,78Z" fill="#823db7" style="transform-origin:597.525px 117.926px"/>
<path class="animable" d="M701.2,78,685.54,185.2a11,11,0,0,1-12.43,9.27l-170-24.83a11,11,0,0,1-9.26-12.44L509.5,50a10.2,10.2,0,0,1,11.57-8.62l171.51,25A10.22,10.22,0,0,1,701.2,78Z" opacity=".2" style="transform-origin:597.525px 117.926px"/>
<rect class="animable" x="522.39" y="63.17" width="36.36" height="25.13" rx="4.2" fill="#823db7" style="transform-origin:540.57px 75.735px;transform:rotate(8.31deg)"/>
<path class="animable" d="M516.13,108l-1.6.65a.4.4,0,0,1-.19,0,.39.39,0,0,1-.29-.22.35.35,0,0,1,.21-.47l2.19-.93a.37.37,0,0,1,.47.2.45.45,0,0,1,0,.28l-1.4,9.59a.36.36,0,0,1-.41.3.36.36,0,0,1-.31-.41Z" fill="#f8f8f8" style="transform-origin:515.482px 112.205px"/>
<path class="animable" d="M518.13,117.24l5.52-3.69a2.7,2.7,0,0,0-1.11-4.93,2.82,2.82,0,0,0-1.92.42l-.57.39a.36.36,0,1,1-.42-.59l.58-.41a3.56,3.56,0,0,1,2.44-.54,3.47,3.47,0,0,1,2.9,3.9,3.45,3.45,0,0,1-1.49,2.37l-4.72,3.16,4.93.72a.38.38,0,0,1,.31.43.37.37,0,0,1-.41.3l-5.82-.85h-.06a.35.35,0,0,1-.25-.15A.39.39,0,0,1,518.13,117.24Z" fill="#f8f8f8" style="transform-origin:521.778px 113.314px"/>
<path class="animable" d="M534.58,110.31l-3.1,2.37a3.54,3.54,0,0,1,2.31,3.88,3.52,3.52,0,0,1-1.41,2.35,3.64,3.64,0,0,1-2.66.68,3.55,3.55,0,0,1-2.34-1.41.37.37,0,0,1,.08-.52.36.36,0,0,1,.52.07,2.84,2.84,0,0,0,3.95.58,2.77,2.77,0,0,0,1.11-1.86,2.71,2.71,0,0,0-.53-2.09,2.76,2.76,0,0,0-1.85-1.11.38.38,0,0,1-.27-.19h0a.38.38,0,0,1,.08-.54l3-2.29-4-.59a.37.37,0,0,1-.32-.42.38.38,0,0,1,.43-.32l4.87.71a.38.38,0,0,1,.32.43.29.29,0,0,1-.07.16A.31.31,0,0,1,534.58,110.31Z" fill="#f8f8f8" style="transform-origin:531.041px 114.26px"/>
<path class="animable" d="M542.23,119.22l-5.65-.83h-.05a.31.31,0,0,1-.21-.11.34.34,0,0,1,0-.51l7.14-6.64h0a.36.36,0,0,1,.52,0,.46.46,0,0,1,.09.2s0,0,0,.06v0l-1.05,7.16.7.1a.37.37,0,0,1,.32.42.36.36,0,0,1-.42.3l-.7-.1-.26,1.79a.38.38,0,0,1-.43.3.37.37,0,0,1-.3-.41Zm.1-.72.9-6.11-5.83,5.39Z" fill="#f8f8f8" style="transform-origin:540.137px 116.192px"/>
<path class="animable" d="M555.15,122.25a.36.36,0,0,1,.07-.52.38.38,0,0,1,.54.08,2.86,2.86,0,0,0,1.85,1.09,2.83,2.83,0,0,0,2.09-.53,2.85,2.85,0,0,0,.59-4,2.84,2.84,0,0,0-4-.57.36.36,0,0,1-.52-.07.28.28,0,0,1-.07-.13v0a.09.09,0,0,1,0,0,.26.26,0,0,1,0-.12.31.31,0,0,0,0-.07l1.12-4.13a.35.35,0,0,1,.19-.25.32.32,0,0,1,.25-.05l4.87.71a.38.38,0,0,1,.31.43.35.35,0,0,1-.42.31l-4.55-.66-.83,3a3.53,3.53,0,0,1,1.85-.22,3.48,3.48,0,0,1,2.34,1.39,3.61,3.61,0,0,1-.73,5,3.69,3.69,0,0,1-2.66.66A3.51,3.51,0,0,1,555.15,122.25Z" fill="#f8f8f8" style="transform-origin:558.757px 118.304px"/>
<path class="animable" d="M566.13,116.57a4.28,4.28,0,0,1,4-1.73.36.36,0,0,1,.32.4.38.38,0,0,1-.41.33A3.6,3.6,0,0,0,566.7,117a6.94,6.94,0,0,0-1.05,2,3.47,3.47,0,1,1-1.21,2.26,4.14,4.14,0,0,1,.07-.69A8.65,8.65,0,0,1,566.13,116.57Zm-1,4.74a.45.45,0,0,0,0,.2.29.29,0,0,1,0,.1,2.76,2.76,0,1,0,0-.36Z" fill="#f8f8f8" style="transform-origin:567.888px 119.964px"/>
<path class="animable" d="M574.73,125.64l5.2-8.59-5-.74a.35.35,0,0,1-.3-.4.37.37,0,0,1,.41-.31l5.52.81a.35.35,0,0,1,.22,0,.45.45,0,0,1,.16.25.29.29,0,0,1,0,.13.26.26,0,0,1-.09.18l-5.44,9a.38.38,0,0,1-.36.17.24.24,0,0,1-.14,0A.4.4,0,0,1,574.73,125.64Z" fill="#f8f8f8" style="transform-origin:577.787px 120.874px"/>
<path class="animable" d="m586.49 117.22a2.2 2.2 0 0 1 1.86 2.48 2.22 2.22 0 0 1-1.15 1.63 3.42 3.42 0 1 1-5.13 2.45 3.46 3.46 0 0 1 2.55-2.83 2.26 2.26 0 0 1-0.61-1.89 2.18 2.18 0 0 1 2.48-1.84zm-1.42 9.72a2.7 2.7 0 1 0-2.28-3.06 2.69 2.69 0 0 0 2.28 3.06zm0.89-6.08a1.51 1.51 0 0 0 1.68-1.27 1.48 1.48 0 0 0-1.25-1.66 1.45 1.45 0 0 0-1.66 1.24 1.5 1.5 0 0 0 1.27 1.69z" fill="#f8f8f8" style="transform-origin:585.455px 122.443px"/>
<path class="animable" d="M605,119.93a3.47,3.47,0,0,1,3,3.54s0,0,0,.08c0,.29-.06.59-.1.9a8.8,8.8,0,0,1-1.61,4,4.36,4.36,0,0,1-4,1.74h0a.36.36,0,0,1-.32-.4.39.39,0,0,1,.41-.34,3.56,3.56,0,0,0,3.32-1.45,6.48,6.48,0,0,0,1-2,3.4,3.4,0,0,1-2.76.77,3.47,3.47,0,1,1,1-6.87Zm2.23,3.83a2.75,2.75,0,1,0-3.12,2.31A2.73,2.73,0,0,0,607.27,123.76Z" fill="#f8f8f8" style="transform-origin:604.485px 125.041px"/>
<path class="animable" d="M610.39,126a6.73,6.73,0,0,1,1.53-3.51,3,3,0,0,1,5.22.77,6.85,6.85,0,0,1,.48,3.8,6.69,6.69,0,0,1-1.55,3.49,3,3,0,0,1-5.21-.76A6.54,6.54,0,0,1,610.39,126Zm.73.11a5.93,5.93,0,0,0,.41,3.36,2.24,2.24,0,0,0,4,.59,6.38,6.38,0,0,0,1-6.48,2.25,2.25,0,0,0-4-.58A6,6,0,0,0,611.12,126.15Z" fill="#f8f8f8" style="transform-origin:613.999px 126.517px"/>
<path class="animable" d="M623.05,123.64l-1.6.65a.4.4,0,0,1-.19,0,.36.36,0,0,1-.28-.22.34.34,0,0,1,.2-.47l2.19-.93a.39.39,0,0,1,.48.2.45.45,0,0,1,0,.28l-1.4,9.59a.36.36,0,0,1-.41.3.37.37,0,0,1-.31-.41Z" fill="#f8f8f8" style="transform-origin:622.409px 127.846px"/>
<path class="animable" d="M625.05,132.86l5.52-3.69a2.68,2.68,0,0,0,.75-3.76,2.69,2.69,0,0,0-1.85-1.17,2.79,2.79,0,0,0-1.92.42l-.58.39a.34.34,0,0,1-.5-.09.34.34,0,0,1,.08-.5l.58-.41a3.56,3.56,0,0,1,2.44-.54,3.37,3.37,0,0,1,2.34,1.49,3.31,3.31,0,0,1,.56,2.41,3.47,3.47,0,0,1-1.48,2.37l-4.73,3.16,4.94.72a.38.38,0,0,1,.3.43.38.38,0,0,1-.41.31l-5.82-.85h-.06a.35.35,0,0,1-.25-.15A.39.39,0,0,1,625.05,132.86Z" fill="#f8f8f8" style="transform-origin:628.699px 128.938px"/>
<path class="animable" d="M650.45,127.23l-3.11,2.38a3.58,3.58,0,0,1-1.75,6.9,3.49,3.49,0,0,1-2.34-1.4.38.38,0,1,1,.6-.45,2.78,2.78,0,0,0,1.85,1.09,2.79,2.79,0,0,0,3.21-2.38,2.83,2.83,0,0,0-2.38-3.19.4.4,0,0,1-.28-.19h0a.37.37,0,0,1,.07-.53l3-2.29-4-.59a.37.37,0,1,1,.11-.74l4.88.71a.38.38,0,0,1,.32.43.35.35,0,0,1-.07.15A.25.25,0,0,1,650.45,127.23Z" fill="#f8f8f8" style="transform-origin:646.884px 131.191px"/>
<path class="animable" d="M658.09,136.15l-5.65-.83h0a.3.3,0,0,1-.22-.1.37.37,0,0,1,0-.52l7.14-6.63h0a.34.34,0,0,1,.51,0,.48.48,0,0,1,.09.19s0,0,0,.07v0l-1,7.16.7.1a.37.37,0,0,1,.32.41.38.38,0,0,1-.43.31l-.7-.11-.26,1.79a.37.37,0,0,1-.42.31.37.37,0,0,1-.31-.41Zm.11-.72.89-6.11-5.83,5.39Z" fill="#f8f8f8" style="transform-origin:656.048px 133.129px"/>
<path class="animable" d="M662.07,137.87a.36.36,0,0,1,.07-.52.38.38,0,0,1,.54.08,2.88,2.88,0,0,0,1.85,1.09,2.83,2.83,0,0,0,3.2-2.38,2.82,2.82,0,0,0-4.47-2.67.36.36,0,0,1-.52-.07.31.31,0,0,1-.08-.13v0s0,0,0-.05a.24.24,0,0,1,0-.12s0,0,0-.07l1.12-4.13a.31.31,0,0,1,.19-.25.3.3,0,0,1,.25,0l4.86.71a.38.38,0,0,1,.32.43.37.37,0,0,1-.43.31l-4.55-.66-.82,3a3.49,3.49,0,0,1,1.84-.22,3.54,3.54,0,0,1,3,4.05,3.52,3.52,0,0,1-1.39,2.35,3.69,3.69,0,0,1-2.66.67A3.57,3.57,0,0,1,662.07,137.87Z" fill="#f8f8f8" style="transform-origin:665.697px 133.973px"/>
<path class="animable" d="M673.05,132.19a4.29,4.29,0,0,1,4-1.73.38.38,0,0,1,.33.4.39.39,0,0,1-.42.33,3.6,3.6,0,0,0-3.32,1.45,7.2,7.2,0,0,0-1,2,3.47,3.47,0,1,1-1.21,2.26,4.14,4.14,0,0,1,.07-.69A8.75,8.75,0,0,1,673.05,132.19Zm-.95,4.74a.67.67,0,0,0,0,.2.29.29,0,0,1,0,.1,2.83,2.83,0,1,0,0-.36Z" fill="#f8f8f8" style="transform-origin:674.878px 135.594px"/>
<rect class="animable" x="512.66" y="142.12" width="92" height="4.52" fill="#37474f" style="transform-origin:558.66px 144.38px;transform:rotate(8.31deg)"/>
<rect class="animable" x="511.35" y="150.12" width="65.13" height="4.52" fill="#37474f" style="transform-origin:543.915px 152.38px;transform:rotate(8.31deg)"/>
<rect class="animable" x="602.49" y="75.46" width="45.88" height="4.52" fill="#37474f" style="transform-origin:625.43px 77.72px;transform:rotate(8.31deg)"/>
<g class="animable" fill="#fff" style="transform-origin:678.695px 93.295px">
<path class="animable" d="M678.8,102.85l-.72-1-.41-.55a11.76,11.76,0,0,0,2.44-16.46c.18-.13.37-.25.55-.39l1-.71,0,0h0a.43.43,0,0,1,0,.07c.27.4.54.8.8,1.22a13.05,13.05,0,0,1,1.21,2.73,12.48,12.48,0,0,1,.62,3.47c0,.56,0,1.13,0,1.69,0,.19-.18,1.41-.19,1.45-.09.37-.16.74-.26,1.11a12.81,12.81,0,0,1-1.17,2.93,13.48,13.48,0,0,1-1.27,1.91,13.08,13.08,0,0,1-1.66,1.75c-.31.27-.63.53-.94.78Z" style="transform-origin:680.98px 93.295px"/>
<path class="animable" d="m677 87.17 1.57-1.17a9.6 9.6 0 0 1 1.94 5.9 9.71 9.71 0 0 1-4 7.84l-1.15-1.55a7.89 7.89 0 0 0 1.63-11z" style="transform-origin:677.935px 92.87px"/>
<path class="animable" d="m674.25 96.66-1.15-1.54a4 4 0 0 0 0.84-5.65l1.54-1.15a5.93 5.93 0 0 1-1.23 8.34z" style="transform-origin:674.884px 92.49px"/>
</g>
</g>
<g class="animable" style="transform-origin:556.565px 360.413px">
<path class="animable" d="M516.42,344.46a3.15,3.15,0,0,0,1.64,2.84,24.63,24.63,0,0,0,2.7,1.41,91.12,91.12,0,0,1,0-9.64c.12-3.7.5-7.32,1-11,0-.06.1,0,.09,0-.19,3.7-.25,7.43-.34,11.14-.09,3.25.09,6.53,0,9.78,1,.4,1.94.74,2.92,1.06,0-1.14-.09-2.27-.12-3.41-.09-3.41.12-6.78.21-10.19a.06.06,0,1,1,.12,0c0,3.32.2,6.68.33,10q.07,1.92.18,3.84c.67.19,1.35.38,2,.55l1.33.32c0-2.24.06-4.5.08-6.69,0-3.55.3-7.09.4-10.63a.09.09,0,1,1,.18,0c-.07,3.53.09,7.08.1,10.62,0,2.27.11,4.59.1,6.9a53.35,53.35,0,0,0,18.09.37,79.24,79.24,0,0,0,10.3-2.17c.82-.23,2.91-.87,5-1.53,0-1.07,0-2.14,0-3.18,0-2.36,0-4.74-.07-7.1,0-.06.08-.07.09,0,.19,2.37.53,4.71.64,7.08,0,.95.12,1.94.16,2.94.74-.24,1.44-.48,2.06-.7-.36-4.46-.2-9-.31-13.44,0-.11.14-.11.15,0,.31,4.35.88,8.77,1,13.16a7.14,7.14,0,0,0,1.36-.58c1-.84-.2-18.45-.38-22.56-.34-7.67-2.19-38.85-4.69-46.14a22.61,22.61,0,0,0-13.41-14.39c-3.09-1.22-6.64-.8-9.89-.72-15.8.38-20.57,11.66-21.47,31.28-.35,7.58-.8,37.12-1.17,44.71C516.6,340.4,516.39,342.45,516.42,344.46Z" fill="#263238" style="transform-origin:542.31px 307.297px"/>
<path class="animable" d="m666.58 453.49c-0.69-2.62-42.26-65.57-45.29-66.93-0.35-0.17-21.59 13-21.59 13-0.91 1.06-39-9.58-39-9.58l-3.37 46.55 70.42 3s9.14 6.2 17.53 11.31c5.17 3.16 9.75 5.84 11.08 6.28 3.5 1.13 10.92-1.02 10.22-3.63z" fill="#ffc4c0" style="transform-origin:611.978px 421.993px"/>
<path class="animable" d="m656.4 457.12c-1.34-0.43-5.91-3.11-11.07-6.28-8.39-5.11-17.53-11.31-17.53-11.31l-15.67-0.67-22-41.11c5.31 1.3 9.29 2.12 9.58 1.78 0 0 21.23-13.15 21.58-13 3 1.36 44.6 64.31 45.29 66.93s-6.72 4.79-10.18 3.66z" fill="#fff" style="transform-origin:628.378px 421.978px"/>
<path class="animable" d="m667 453.6c-0.73-2.69-42.51-65.62-45.62-67-1.18-0.54-11.51 5-21.67 13l27 40.54s26.27 16.15 29.84 17.31 11.16-1.17 10.45-3.85z" fill="#823db7" style="transform-origin:633.378px 422.16px"/>
<path class="animable" d="m663.87 454.37c-7.26-10.38-35.58-52.92-42-63.73 0-0.09 0-0.13 0.07 0 7.42 10.12 35.39 52.89 42.07 63.65 0.17 0.19-0.01 0.3-0.14 0.08z" fill="#263238" style="transform-origin:642.975px 422.524px"/>
<path class="animable" d="M651.58,454.84a10.15,10.15,0,0,1-1.61-8,9.83,9.83,0,0,1,4.06-6.09c.07,0,.14.07.09.12a11.77,11.77,0,0,0-2.41,13.91A.08.08,0,1,1,651.58,454.84Z" fill="#263238" style="transform-origin:651.937px 447.836px"/>
<path class="animable" d="M630,442.68c-2.87-4.18-4.63-10.07-2.91-15,.06-.19.33-.1.35.07a70.46,70.46,0,0,0,3.12,14.64A.31.31,0,0,1,630,442.68Z" fill="#263238" style="transform-origin:628.503px 435.212px"/>
<path class="animable" d="M633.38,445.1c-2.86-4.18-4.62-10.07-2.91-15,.07-.19.34-.09.36.08A69.46,69.46,0,0,0,634,444.83.32.32,0,0,1,633.38,445.1Z" fill="#263238" style="transform-origin:631.913px 437.65px"/>
<path class="animable" d="M636.82,447.51c-2.87-4.18-4.63-10.06-2.91-15,.06-.19.33-.09.35.07a70.46,70.46,0,0,0,3.12,14.64A.31.31,0,0,1,636.82,447.51Z" fill="#263238" style="transform-origin:635.323px 440.043px"/>
<path class="animable" d="M640.25,449.93c-2.86-4.18-4.62-10.07-2.91-15,.07-.19.34-.1.36.07a69.33,69.33,0,0,0,3.12,14.64A.32.32,0,0,1,640.25,449.93Z" fill="#263238" style="transform-origin:638.758px 442.459px"/>
<path class="animable" d="m613.66 400c-3.13-4.75 4.24-9.62 7.38-4.87s-4.24 9.6-7.38 4.87z" fill="#263238" style="transform-origin:617.352px 397.561px"/>
<path class="animable" d="m627.67 450.28c1.43-4.23 1-8.93 1.06-13.32a0.62 0.62 0 0 0-0.84-0.53c0-0.07-0.13-0.12-0.21-0.05a26.5 26.5 0 0 0-8.25 11c-1 2.54-0.91 6.39 2.28 7.35 3.02 0.91 5.13-1.98 5.96-4.45zm-3.36 2.52c-4.88 2.63-4.1-3.86-3.31-5.7a28.26 28.26 0 0 1 1.82-3.44 79.14 79.14 0 0 1 4.68-6.53c-0.18 2.15-0.16 4.3-0.26 6.46-0.11 2.57-0.24 7.76-2.93 9.21z" fill="#263238" style="transform-origin:623.806px 445.624px"/>
<path class="animable" d="m615 423.17c-2.54 2.16-1 5.71 0.86 7.64a26.58 26.58 0 0 0 12 6.77c0.11 0 0.16-0.05 0.17-0.13a0.62 0.62 0 0 0 0.56-0.83c-1.84-4-3.31-8.47-6.31-11.77-1.76-1.93-4.85-3.72-7.28-1.68zm9.54 8c0.95 1.94 1.8 3.91 2.83 5.81a77.5 77.5 0 0 1-6.91-4.1 29.63 29.63 0 0 1-3-2.41c-1.46-1.38-4.78-7 0.74-6.55 3.02 0.22 5.24 4.92 6.37 7.23z" fill="#263238" style="transform-origin:621.146px 429.923px"/>
<path class="animable" d="M572.45,380.06S513.23,353,486.82,353.32c-31.42.4-55.81,37.71-17.27,64.57C503.62,441.64,611,439.82,611,439.82l-25.12-45s-29.65-11.48-68.49-12.66l54.19,11Z" fill="#455a64" style="transform-origin:530.391px 396.585px"/>
<path class="animable" d="M571.37,389c-4.65-1.18-9.38-2-14.09-2.82s-9.52-1.6-14.3-2.31A285.39,285.39,0,0,0,514.24,381c-.91,0-1.81-.07-2.71-.09-.19-.08-.39-.13-.58-.19-.46-.14-.91-.28-1.37-.4-.85-.22-1.72-.41-2.58-.6-1.8-.39-3.62-.7-5.4-1.16-.11,0-.16.14-.06.17,1.8.52,3.55,1.16,5.35,1.68l1.55.43c-3.54,0-7.07,0-10.61.1-.11,0-.12.17,0,.17,4.8,0,9.63.31,14.41.69s9.51.8,14.25,1.38c9.57,1.17,19.12,2.65,28.64,4.26,5.33.91,10.68,1.92,16.06,2.5C571.7,390,571.89,389.17,571.37,389Z" fill="#263238" style="transform-origin:534.711px 384.252px"/>
<path class="animable" d="M600,437.79c-1.54-2.86-2.82-5.89-4.21-8.83s-2.79-5.9-4.19-8.84c-2.8-5.87-12.92-25.68-13.95-27.08-.07-.09-.22,0-.19.1.44,1.51,6.71,14.59,8.16,17.51,2.89,5.84,6,11.58,9,17.36.87,1.65,1.76,3.28,2.64,4.92s1.81,3.26,2.61,4.94C599.94,438,600.1,437.89,600,437.79Z" fill="#263238" style="transform-origin:588.744px 415.466px"/>
<path class="animable" d="m460.27 453.51c0.77-2.6 44.42-64.13 47.49-65.38 0.36-0.17 21.14 13.68 21.14 13.68 0.88 1.1 39.29-8.26 39.29-8.26l1.81 46.63-70.48 0.67s-9.34 5.89-17.9 10.71c-5.27 3-9.94 5.51-11.28 5.9-3.52 1.03-10.86-1.37-10.07-3.95z" fill="#ffc4c0" style="transform-origin:515.105px 422.916px"/>
<path class="animable" d="m470.32 457.47c1.35-0.39 6-2.91 11.27-5.9 8.55-4.83 17.9-10.72 17.9-10.72l15.68-0.15 23.33-40.35c-5.36 1.12-9.36 1.81-9.64 1.46 0 0-20.78-13.85-21.13-13.68-3.08 1.25-46.73 62.78-47.5 65.37s6.59 4.99 10.09 3.97z" fill="#fff" style="transform-origin:499.337px 422.919px"/>
<path class="animable" d="m459.85 453.6c0.82-2.66 44.68-64.16 47.83-65.45 1.2-0.5 11.34 5.34 21.22 13.66l-28.32 39.62s-26.79 15.27-30.4 16.31-11.18-1.48-10.33-4.14z" fill="#823db7" style="transform-origin:494.342px 423.05px"/>
<path class="animable" d="m462.94 454.47c7.61-10.13 37.33-51.7 44.08-62.29 0.05-0.09 0-0.13-0.07-0.05-7.76 9.88-37.14 51.69-44.18 62.22-0.15 0.22 0.01 0.33 0.17 0.12z" fill="#263238" style="transform-origin:484.875px 423.335px"/>
<path class="animable" d="M475.21,455.36a10.17,10.17,0,0,0,1.88-8,9.82,9.82,0,0,0-3.86-6.23c-.06-.05-.14.07-.09.12a11.75,11.75,0,0,1,1.94,14A.08.08,0,0,0,475.21,455.36Z" fill="#263238" style="transform-origin:475.194px 448.254px"/>
<path class="animable" d="M497.24,443.93c3-4.09,4.95-9.91,3.41-14.88-.06-.19-.34-.11-.36.06a70.21,70.21,0,0,1-3.61,14.53A.32.32,0,0,0,497.24,443.93Z" fill="#263238" style="transform-origin:498.927px 436.498px"/>
<path class="animable" d="M493.72,446.23c3-4.09,5-9.91,3.41-14.88-.06-.19-.33-.11-.35.06a70.24,70.24,0,0,1-3.62,14.53A.32.32,0,0,0,493.72,446.23Z" fill="#263238" style="transform-origin:495.418px 438.798px"/>
<path class="animable" d="M490.21,448.53c3-4.09,5-9.91,3.41-14.88-.06-.2-.33-.11-.36.06a69.58,69.58,0,0,1-3.61,14.53A.32.32,0,0,0,490.21,448.53Z" fill="#263238" style="transform-origin:491.908px 441.096px"/>
<path class="animable" d="M486.7,450.83c3-4.09,4.95-9.91,3.41-14.88-.06-.2-.34-.11-.36.06a70.21,70.21,0,0,1-3.61,14.53A.32.32,0,0,0,486.7,450.83Z" fill="#263238" style="transform-origin:488.387px 443.396px"/>
<path class="animable" d="m514.94 401.79c3.28-4.64-3.92-9.76-7.21-5.11s3.91 9.76 7.21 5.11z" fill="#263238" style="transform-origin:511.333px 399.236px"/>
<path class="animable" d="M505.07,456.24c3.22-.85,3.4-4.69,2.52-7.26a26.55,26.55,0,0,0-7.87-11.28.13.13,0,0,0-.21.05.62.62,0,0,0-.87.5c-.06,4.39-.67,9.07.61,13.35C500,454.09,502,457.05,505.07,456.24Zm-5.16-11.32c0-2.16.06-4.3,0-6.46a79.33,79.33,0,0,1,4.46,6.69,28.12,28.12,0,0,1,1.7,3.49c.73,1.87,1.29,8.38-3.49,5.59C499.9,452.69,499.93,447.49,499.91,444.92Z" fill="#263238" style="transform-origin:503.243px 447.021px"/>
<path class="animable" d="m505.5 426.36c-3.12 3.2-4.74 7.63-6.71 11.55a0.63 0.63 0 0 0 0.54 0.85 0.13 0.13 0 0 0 0.16 0.14 26.51 26.51 0 0 0 12.19-6.37c2-1.87 3.58-5.36 1.12-7.6s-5.48-0.44-7.3 1.43zm4.12-0.82c5.53-0.26 2 5.25 0.53 6.57a29.36 29.36 0 0 1-3.13 2.31c-2.25 1.49-4.67 2.63-7 3.88 1.08-1.87 2-3.81 3-5.72 1.19-2.27 3.55-6.89 6.6-7.04z" fill="#263238" style="transform-origin:506.402px 431.397px"/>
<path class="animable" d="m569.88 379.18s59.57-18.4 91.45-14.83c31.22 3.5 44.31 42.53 14 63.95-33.05 23.39-158.19 16.19-158.19 16.19l26.37-48s42.52-10.33 81.37-10.22l-54.53 9.15z" fill="#455a64" style="transform-origin:604.815px 404.713px"/>
<path class="animable" d="M541.78,399.57a.85.85,0,0,0,.05-.24c0-.06,0-.13,0-.2s.07-.3.11-.46c.08-.32.18-.62.29-.93s.24-.61.37-.91a7.2,7.2,0,0,1,.49-.85s0,0,.08-.05l0,0,.07,0,.07,0c4.68-1,36.52-6.58,41.26-7.27s9.57-1.29,14.37-1.84a286.15,286.15,0,0,1,28.82-1.93c.91,0,1.81,0,2.71,0a5.69,5.69,0,0,1,.59-.16c.46-.13.91-.26,1.38-.36.86-.19,1.73-.35,2.6-.51,1.81-.33,3.63-.58,5.44-1a.09.09,0,0,1,0,.17c-1.81.46-3.58,1-5.39,1.5l-1.57.38c3.54.08,7.07.24,10.6.45.11,0,.12.18,0,.18-4.8-.14-9.64,0-14.43.21s-9.53.47-14.28.89c-9.61.85-19.21,2-28.77,3.31-5.36.73-37.82,6.49-43.22,6.89h-.07a2.79,2.79,0,0,1-.14.37c-.13.3-.27.59-.43.89s-.29.55-.45.82l-.26.4-.13.2a2.39,2.39,0,0,0-.13.21C541.91,399.76,541.72,399.69,541.78,399.57Z" fill="#263238" style="transform-origin:592.987px 391.299px"/>
<path class="animable" d="m527.12 441.31c1.63-2.81 3-5.79 4.5-8.68s3-5.8 4.49-8.7c3-5.77 13.76-25.23 14.84-26.6 0.07-0.08 0.22 0 0.19 0.11-0.49 1.49-7.19 14.36-8.74 17.23-3.09 5.74-6.35 11.37-9.56 17.05-0.92 1.62-1.87 3.22-2.8 4.83s-1.92 3.2-2.77 4.85c-0.05 0.1-0.21 0.01-0.15-0.09z" fill="#263238" style="transform-origin:539.125px 419.371px"/>
<path class="animable" d="m547.66 320.53c-8.66 14.47-22.26 40.76-25.66 43.02-12.42 8.18-32.53 24.28-36.26 28.28-4.81 5.14 20.67 28 24.22 24.73 2.54-2.35 30.65-24.44 38.38-38.29 5-9 8.83-36.63 10.49-53.2 1.45-14.71-5.36-14.24-11.17-4.54z" fill="#ffc4c0" style="transform-origin:522.083px 365.23px"/>
<path class="animable" d="M513.94,413c-.45.44-6.85,6.68-11.12,9.53-3.19,2.13-12.53,8-15.23,4.74-1.84-2.23,3.25-6.34,6.78-9.33,1.86-1.57,3.79-4.65,2.72-5.83-1.86-2.06-6.62,2.11-9.58,5.37-5.72,6.3-12.75,16.6-18.16,14.4-2.05-.83-.94-3.88,1-7.15-3.58,4.21-7.61,8-9.92,7.18-1.33-.47-1.73-1.57-1.54-3a3.27,3.27,0,0,1-3.62.56c-1.93-1.06-1.93-3.53-1.07-6.33a1.83,1.83,0,0,1-1.6-.45c-4.56-3.71,6.57-22,11.49-25,14.48-8.69,31.2-13.22,31.2-13.22C503.05,387.41,514,413,513.94,413Z" fill="#ffc4c0" style="transform-origin:482.733px 408.326px"/>
<path class="animable" d="M486.35,405.87a27.65,27.65,0,0,0-9.17,7.33c-3.14,3.87-4.8,7.78-7.16,11.92-.06.11.11.21.17.1,1.12-2,5.95-9.57,7.25-11.37a26.56,26.56,0,0,1,8.94-7.92A0,0,0,0,0,486.35,405.87Z" fill="#263238" style="transform-origin:478.194px 415.569px"/>
<path class="animable" d="m481.32 400.15a66.48 66.48 0 0 0-10.81 8.06c-3.51 3.45-5.68 8-7.84 12.32q-1.94 3.93-3.71 7.94c0 0.11 0.11 0.22 0.17 0.1q3.25-6.72 6.91-13.26a35.38 35.38 0 0 1 8.87-10.49c2.07-1.64 4.26-3.13 6.45-4.6 0.04-0.03 0.01-0.1-0.04-0.07z" fill="#263238" style="transform-origin:470.169px 414.382px"/>
<path class="animable" d="M475.09,395.73c-3.74,2.09-7,3.9-9.87,7.16-3.79,4.32-6.8,10.53-7.85,12.73-1.16,2.43-2.24,4.89-3.28,7.37,0,.1.14.18.18.08a138.15,138.15,0,0,1,8.37-15.94,27.33,27.33,0,0,1,5.42-6.6,49.47,49.47,0,0,1,7-4.77S475.1,395.72,475.09,395.73Z" fill="#263238" style="transform-origin:464.591px 409.422px"/>
<path class="animable" d="m490.22 384.45 26.84 30.68s25-25.36 32.46-36.38c3.13-4.6 9.44-39.71 10.35-51.25 1.1-14.08-4.43-20.64-12.26-8.42-6.77 10.58-24.78 41.77-25.86 42.54z" fill="#823db7" style="transform-origin:525.115px 363.894px"/>
<path class="animable" d="m499 382.82c10.79 10.06 20.62 22.29 22.48 24.29 0.09 0.1-0.07 0.23-0.16 0.13-1.72-2.07-14.46-14.81-22.49-24.28-0.1-0.11 0.06-0.24 0.17-0.14z" fill="#263238" style="transform-origin:510.153px 395.03px"/>
<path class="animable" d="m559.86 327.5c-0.9 11.54-7.21 46.65-10.34 51.25-7.49 11-32.46 36.37-32.46 36.37l-14.62-16.7 51.2-85.42c4.41-1.8 7.01 4.43 6.22 14.5z" opacity=".1" style="transform-origin:531.22px 363.906px"/>
<path class="animable" d="m613.79 379.53-75.71 9.7 1.08-24.68s-6.75-4.65-4.29-15.19c1.62-6.9 10.53-23.64 15.19-30.71 11.36-17.22 21.42-9.42 25.51-5.77 15.6 13.94 38.22 66.65 38.22 66.65z" fill="#823db7" style="transform-origin:574.06px 348.575px"/>
<path class="animable" d="M557.47,310.51l12.39-1.5c.5.22,1,.46,1.43.71l-15.17,1.83C556.57,311.17,557,310.82,557.47,310.51ZM549.82,319l28.44-3.44-.74-.8-27,3.26c-.14.19-.28.4-.42.61Zm-4.3,7.2,37.6-4.54c-.19-.28-.39-.55-.59-.81l-36.48,4.4Zm-3.85,7.16,45.63-5.51c-.18-.27-.35-.56-.53-.83l-44.6,5.39Zm-3.45,7.11,52.89-6.39-.49-.83-52,6.27C538.51,339.86,538.36,340.19,538.22,340.49Zm-2.82,7,59.28-7.16c-.15-.28-.32-.56-.47-.84l-58.49,7.06C535.6,346.92,535.49,347.23,535.4,347.53Zm-1,6.82,63.71-7.7c-.14-.28-.3-.56-.45-.84l-63.28,7.64C534.33,353.75,534.33,354.06,534.35,354.35Zm1.28,5.63a8.43,8.43,0,0,0,.43.85L601.3,353l-.43-.84Zm3.42,7.18,65.38-7.9-.41-.84-64.92,7.85Zm-.29,6.73,68.7-8.3c-.12-.28-.26-.56-.41-.85L538.79,373Zm-.3,6.73,71.94-8.7-.39-.84-71.51,8.65Zm-.29,6.73,75.07-9.08c-.11-.25-.24-.53-.37-.85l-74.67,9Z" opacity=".1" style="transform-origin:573.814px 348.15px"/>
<path class="animable" d="M560.8,362.5a67.69,67.69,0,0,0-9.95.94c-1.63.3-3.23.67-4.84,1.08-.8.21-1.6.38-2.41.55a10.57,10.57,0,0,1-2.57.31c-.07,0-.08.11,0,.11a18.05,18.05,0,0,0,2.44.13,17.07,17.07,0,0,0,2.36-.28c1.65-.29,3.3-.65,4.95-1,3.33-.61,6.67-1.23,10-1.6C561,362.76,561,362.5,560.8,362.5Z" fill="#263238" style="transform-origin:550.961px 364.061px"/>
<path class="animable" d="M568.78,366a75.25,75.25,0,0,0-8.19-1c-1.37-.08-2.74-.08-4.12,0l-2,.09c-.72,0-1.43.18-2.16.21-.07,0-.08.12,0,.12.68,0,1.36.09,2,.12l2.05.09c1.37.06,2.74.14,4.11.19,2.75.09,5.48.22,8.22.41C568.92,366.24,568.92,366,568.78,366Z" fill="#263238" style="transform-origin:560.565px 365.585px"/>
<path class="animable" d="M563.33,310.57c.29,1.42-2,12.51-8,14.9-2,.77-6.66-9.67-6.66-9.67l-.52-.69-7.32-9.68,9-13.9,1.34-1.91s1.83,2.79,4.07,6.27c.11.16.21.32.32.5s.26.37.37.56c.35.52.69,1.05,1,1.58l.76,1.23c.26.43.51.86.78,1.29A78.79,78.79,0,0,1,563.33,310.57Z" fill="#ffc4c0" style="transform-origin:552.092px 307.565px"/>
<path class="animable" d="m555.19 295.89a24.35 24.35 0 0 1-7.05 19.22l-7.32-9.68 9-13.9 1.34-1.91s1.84 2.79 4.03 6.27z" fill="#263238" style="transform-origin:548.046px 302.365px"/>
<path class="animable" d="m521.43 290.1c0.73 21.29 13.56 23.26 18.15 23.09 4.17-0.14 18.34-1.18 19.82-22.43s-8.66-27.64-18.21-27.81-20.5 5.86-19.76 27.15z" fill="#ffc4c0" style="transform-origin:540.47px 288.073px"/>
<path class="animable" d="M525.41,289.87c.47-.17.88-.4,1.33-.61a2.47,2.47,0,0,0,1.25-.89.76.76,0,0,0-.21-.9,1.85,1.85,0,0,0-1.9,0,2.81,2.81,0,0,0-1.48,1.34A.81.81,0,0,0,525.41,289.87Z" fill="#263238" style="transform-origin:526.202px 288.559px"/>
<path class="animable" d="M539.25,287.9a14.44,14.44,0,0,1-1.47,0,2.41,2.41,0,0,1-1.49-.32.76.76,0,0,1-.16-.91,1.86,1.86,0,0,1,1.74-.77,2.78,2.78,0,0,1,1.88.65A.81.81,0,0,1,539.25,287.9Z" fill="#263238" style="transform-origin:538.003px 286.903px"/>
<path class="animable" d="m529 294.73c0-0.05-0.1 0.09-0.09 0.15 0.3 1.42 0.41 3.09-0.79 3.8v0.08c1.51-0.51 1.34-2.76 0.88-4.03z" fill="#263238" style="transform-origin:528.722px 296.741px"/>
<path class="animable" d="m527.4 293.47c-2.33 0.25-1.67 4.88 0.49 4.66s1.46-4.86-0.49-4.66z" fill="#263238" style="transform-origin:527.576px 295.801px"/>
<path class="animable" d="M526.48,293.92c-.34.29-.63.79-1.07.88s-.95-.34-1.34-.78c0,0-.07,0-.06.06.1.89.52,1.78,1.4,1.83s1.26-.8,1.34-1.71C526.77,294,526.61,293.8,526.48,293.92Z" fill="#263238" style="transform-origin:525.38px 294.898px"/>
<path class="animable" d="m537.07 293.44c0-0.05 0.13 0.05 0.13 0.11 0.2 1.44 0.67 3.05 2 3.3v0.09c-1.57 0.06-2.2-2.1-2.13-3.5z" fill="#263238" style="transform-origin:538.132px 295.184px"/>
<path class="animable" d="m538.09 291.73c2.27-0.57 3.24 4 1.14 4.54s-3.04-4.06-1.14-4.54z" fill="#263238" style="transform-origin:538.727px 293.997px"/>
<path class="animable" d="M539.11,291.83c.42.17.87.53,1.31.47s.77-.65,1-1.19c0-.06.07,0,.08,0,.21.87.11,1.85-.69,2.19s-1.46-.31-1.85-1.14C538.87,292,539,291.76,539.11,291.83Z" fill="#263238" style="transform-origin:540.262px 292.238px"/>
<path class="animable" d="M539.42,304.33c-.24.43-.44,1-.93,1.16a3.74,3.74,0,0,1-1.6.09s-.08.06,0,.09a2,2,0,0,0,2,.24,1.53,1.53,0,0,0,.73-1.55C539.57,304.27,539.46,304.27,539.42,304.33Z" fill="#263238" style="transform-origin:538.246px 305.181px"/>
<path class="animable" d="M532.33,300.6s.2,2.17.43,3.17c0,.09.27.08.61,0,0,0,0,0,0,0A4.87,4.87,0,0,0,537.6,301c0-.11-.1-.19-.18-.1a7.32,7.32,0,0,1-4,2.24c-.13-.26-.21-3.74-.37-3.72a8.74,8.74,0,0,0-2.14,1c-.55-4.53-.36-9.1-1-13.6,0-.16-.26-.16-.27,0-.54,4.79,0,10,.41,14.69C530.09,302.08,532,300.86,532.33,300.6Z" fill="#263238" style="transform-origin:533.506px 295.267px"/>
<path class="animable" d="M533.41,303.28a5.88,5.88,0,0,0,2.62,1.45,2.71,2.71,0,0,0,1.61-.15c1.11-.49,1-1.55.62-2.43a6.12,6.12,0,0,0-.74-1.3A7.61,7.61,0,0,1,533.41,303.28Z" fill="#263238" style="transform-origin:535.968px 302.82px"/>
<path class="animable" d="M536,304.73a2.71,2.71,0,0,0,1.61-.15c1.11-.49,1-1.55.62-2.43A2.77,2.77,0,0,0,536,304.73Z" fill="#ff9bbc" style="transform-origin:537.248px 303.47px"/>
<path class="animable" d="m558.86 292.56c-3.94 1.13-6.39-7.92-6.39-7.92s-17.56-0.27-21.16-14a23.82 23.82 0 0 1-9.91 14.73s-1.75-15.37 9.91-20.2c0 0 14.19-7.78 24.47 2.85s5.72 23.79 3.08 24.54z" fill="#263238" style="transform-origin:541.744px 277.541px"/>
<path class="animable" d="M531.1,269.64a15.17,15.17,0,0,0,1.74,6.24,16,16,0,0,0,4.09,5.13,12.77,12.77,0,0,0,1.34,1l.68.47c.23.14.48.27.73.39.49.25,1,.52,1.47.74s1,.38,1.55.55c.26.09.51.19.77.26l.8.18,1.6.34c1.08.13,2.16.21,3.23.26-1.05-.27-2.11-.44-3.13-.72l-1.53-.48-.75-.23-.73-.32-1.45-.62c-.47-.24-.92-.51-1.38-.77l-.68-.38-.64-.46a11.34,11.34,0,0,1-1.25-.94,18.34,18.34,0,0,1-4.07-4.74,19.64,19.64,0,0,1-1.41-2.83A17.78,17.78,0,0,1,531.1,269.64Z" fill="#263238" style="transform-origin:540.1px 277.42px"/>
<path class="animable" d="M559.52,298a4.55,4.55,0,0,1-.93.44,3.32,3.32,0,0,1-1,.21,2.91,2.91,0,0,1-1.28-.17,3.53,3.53,0,0,1-.91-.46,4.08,4.08,0,0,1-1-1l.12-5.81s3.35-7.39,6.62-6.31S562.76,296.06,559.52,298Z" fill="#ffc4c0" style="transform-origin:558.66px 291.727px"/>
<path class="animable" d="M560.6,287.75a.05.05,0,0,1,0,.09c-2.26,1.45-3.12,4-3.59,6.47a2,2,0,0,1,2.83-1.09.08.08,0,0,1,0,.15,2.22,2.22,0,0,0-2.26,1.21,10.61,10.61,0,0,0-.78,2.15c-.08.24-.49.2-.46-.07a.13.13,0,0,0,0-.06C555.71,293.5,557.32,288.69,560.6,287.75Z" fill="#263238" style="transform-origin:558.417px 292.319px"/>
<path class="animable" d="m567.41 323.38c-1.39 16.8-3.11 44.71-5.66 47.92-9.26 11.64-23.37 33.19-25.68 38.15-3 6.38 28.36 20.2 30.71 16 1.69-3 21.54-32.76 24.58-48.33 2-10.09-5.78-37.12-10.65-53-4.71-15.47-12.4-11.55-13.3-0.74z" fill="#ffc4c0" style="transform-origin:563.775px 370.045px"/>
<path class="animable" d="m533.18 408.2c-8.48 6.5-9.66 9.47-19.73 11.16-6.61 1.1-8.74 5.8-2.12 8 10.83 3.57 23.53-2.52 27.32-5.9z" fill="#ffc4c0" style="transform-origin:522.976px 418.323px"/>
<path class="animable" d="M560.17,395.33s-13,3.83-22.78,9.87c-6.72,4.17-20.33,14.88-19.8,38.49.12,5.61,4.27,13.5,7.39,4.27,2.22-6.55,1.64-11.37,3.62-14.95,0,0,6.47,9.42,12.08,9.07a103.12,103.12,0,0,0,14.59-1.95,22.62,22.62,0,0,0-.12-2.76,25.84,25.84,0,0,0,11.63-11.94Z" fill="#ffc4c0" style="transform-origin:542.177px 423.766px"/>
<path class="animable" d="m531.61 410.2c-1.21 4-3.65 12.42-3.24 20 0.46 8.45 3.61 24.59 9.84 24.19 4.57-0.29 3.91-6.56 3.91-6.56s2.71 6.4 6.78 5.23c3.7-1.07 2.9-5.89 2.9-5.89s2.31 3.6 5.69 1.89c4.06-2.06-1.45-9.26 0.85-14.9 0.52-1.25-26.73-23.96-26.73-23.96z" fill="#ffc4c0" style="transform-origin:543.678px 432.299px"/>
<path class="animable" d="m537.21 428.25c-0.53 3.92 0.54 13.12 4.75 19.52 0.09 0.15 0.25 0.15 0.2 0a83.17 83.17 0 0 1-4.87-19.52c0-0.05-0.07-0.04-0.08 0z" fill="#263238" style="transform-origin:539.627px 438.049px"/>
<path class="animable" d="M545.75,428c-.11,3.43,1.42,12.86,5.9,19.2.1.14.26.14.2,0a89.09,89.09,0,0,1-6-19.2A0,0,0,0,0,545.75,428Z" fill="#263238" style="transform-origin:548.804px 437.653px"/>
<path class="animable" d="M528.55,433c-1.7,3.17-2.07,5.95-2.67,9.44a47,47,0,0,1-1.12,5.14c-.44,1.54-1.08,3.82-3,4.05a2.84,2.84,0,0,1-2.45-1.53,13.67,13.67,0,0,1-1.47-4.1c0-.06-.1,0-.09,0a19.6,19.6,0,0,0,1,3.93,4.67,4.67,0,0,0,1.7,2.12c1.71,1,3.46-.45,4.21-1.95a15.79,15.79,0,0,0,1-2.86c.24-.93.44-1.87.62-2.82.36-1.95.61-3.91,1-5.86a44.42,44.42,0,0,1,1.42-5.53A.06.06,0,0,0,528.55,433Z" fill="#263238" style="transform-origin:523.225px 442.659px"/>
<path class="animable" d="M532.12,446.63A108.66,108.66,0,0,1,528.66,433a.05.05,0,0,0-.1,0c-.07,3.7,1.71,11.53,2.55,13.77s2,4.95,3.68,6.63c2.56,2.53,4.73,1.31,5.47.8a4.7,4.7,0,0,0,1.8-2.54,9.4,9.4,0,0,0,.09-3.81c0-.06-.1-.06-.1,0,.14,1.89-.32,4.35-1.88,5.56a3.3,3.3,0,0,1-2.42.75,4.24,4.24,0,0,1-2.47-1.63A19.78,19.78,0,0,1,532.12,446.63Z" fill="#263238" style="transform-origin:535.43px 443.948px"/>
<path class="animable" d="M538.07,401l35,20.81S589,390,592.65,377.19c1.54-5.35-6.88-40.06-10.18-51.15-3.63-12.26-11.42-21.5-15.54-4.13-2.9,12.23-5.21,46.56-6,47.63S538.07,401,538.07,401Z" fill="#823db7" style="transform-origin:565.453px 367.069px"/>
<path class="animable" d="M584.54,397.53c2.48-6.41,5.86-13.85,7.68-20.41.6-4.24-.4-8.64-1-12.86-1.48-8.61-3.48-17.14-5.47-25.65l-2-8.53c1.74,5.58,3.28,11.22,4.72,16.88s2.69,11.37,3.74,17.13c.64,4.37,1.58,8.78.9,13.23-2.1,7-5.4,13.61-8.53,20.21Z" fill="#263238" style="transform-origin:588.548px 363.805px"/>
<path class="animable" d="M585.38,337c-.28-2-.07-4-.32-5.94a9.08,9.08,0,0,1,.32,5.94Z" fill="#263238" style="transform-origin:585.397px 334.03px"/>
<path class="animable" d="M546.11,396.4c13.22,6.55,26.14,15.44,28.5,16.83.11.07,0,.24-.12.17-2.24-1.48-18.09-10-28.5-16.82C545.86,396.5,546,396.33,546.11,396.4Z" fill="#263238" style="transform-origin:560.296px 404.9px"/>
<path class="animable" d="M547,388.38c4.26-6.46,8.65-12.82,13.12-19.14a4,4,0,0,0,.51-1.64c.35-1.89.59-3.8.83-5.71,1-7.38,1.88-15.59,2.81-23l1-7.67c-.13,2.57-.33,5.14-.51,7.72-.6,7.49-1.38,15.68-2.31,23.1-.44,2.46-.51,5.23-1.45,7.55-4.58,6.34-9.22,12.63-14,18.81Z" fill="#263238" style="transform-origin:556.135px 359.81px"/>
<path class="animable" d="M564,332.3c.37,2.11.31,4.3.72,6.4a10.18,10.18,0,0,1-.72-6.4Z" fill="#263238" style="transform-origin:564.248px 335.5px"/>
<rect class="animable" x="466.41" y="453.93" width="90.68" height="4.06" fill="#c7c7c7" style="transform-origin:511.75px 455.96px;transform:rotate(-0.41deg)"/>
<polygon class="animable" points="466.4 454.26 466.43 458.32 528.07 457.88 524.93 453.84" fill="#a6a6a6" style="transform-origin:497.235px 456.08px"/>
<polygon class="animable" points="515.6 457.97 436.23 458.54 424.35 402.62 503.71 402.06" fill="#a6a6a6" style="transform-origin:469.975px 430.3px"/>
<polygon class="animable" points="511.89 458 432.52 458.56 420.64 402.65 500 402.08" fill="#c7c7c7" style="transform-origin:466.265px 430.32px"/>
<path class="animable" d="m459.09 428.29c-0.06 2.64 1.73 5.16 4 5.62s4.16-1.32 4.22-4-1.72-5.16-4-5.62-4.15 1.35-4.22 4z" fill="#fff" style="transform-origin:463.2px 429.1px"/>
</g>
</svg>
