<svg id="Camada_1" data-name="Camada 1" xmlns="http://www.w3.org/2000/svg" xmlns:xlink="http://www.w3.org/1999/xlink" viewBox="0 0 595.28 595.67"><defs><style>.cls-1{mask:url(#mask);}.cls-2{fill:#a990bf;}.cls-3{fill:#c5b7d8;}.cls-4{fill:#c4b5d7;}.cls-5{fill:#e1daec;}.cls-6{fill:#e3dcee;}.cls-7{fill:#8e6fab;}.cls-8{fill:#8f70ab;}.cls-9{filter:url(#luminosity-noclip);}</style><filter id="luminosity-noclip" x="51.14" y="-8489.69" width="493.97" height="32766" filterUnits="userSpaceOnUse" color-interpolation-filters="sRGB"><feFlood flood-color="#fff" result="bg"/><feBlend in="SourceGraphic" in2="bg"/></filter><mask id="mask" x="51.14" y="-8489.69" width="493.97" height="32766" maskUnits="userSpaceOnUse"><g class="cls-9"/></mask></defs><g class="cls-1"><path class="cls-2" d="M345.66,595.67H334.94l0-.35h10.77C345.67,595.43,345.66,595.55,345.66,595.67Z"/><path class="cls-3" d="M345.66,595.67c0-.12,0-.24,0-.36h5.95a1.45,1.45,0,0,0,0,.36Z"/><path class="cls-4" d="M334.91,595.32l0,.35h-5.55l0-.32Z"/><path class="cls-5" d="M329.36,595.35l0,.32h-3.58c0-.1,0-.21,0-.32Z"/><path class="cls-6" d="M351.61,595.67a1.45,1.45,0,0,1,0-.36l3.57,0a1.94,1.94,0,0,0,0,.34Z"/><path class="cls-7" d="M355.2,595.33l-3.57,0H334.91l-5.55,0h-3.57c-9.9-.34-19.79-.88-29.67-1.69q-15.6-1.27-31.12-3.32c-7.65-1-15.36-1.8-22.9-3.45a214,214,0,0,1-50.94-18.28c-8.45-4.27-16.2-9.72-24.14-14.83-4.28-2.75-8.52-5.56-12.78-8.34-.53-.34-1.05-.7-1.94-1.29a73.54,73.54,0,0,1,11.23.55c9.47.9,18.77,3,28.19,4.24a96.67,96.67,0,0,0,38.07-2.83c15.83-4.21,30.4-11,43.29-21.17A102.35,102.35,0,0,0,297,498.21c.26-.43.72-.8.55-1.44-.52-.35-.85.14-1.19.34C279,507.15,260.34,514,241,519.18c-7.52,2-14.92,4.43-22.66,5.58a157.77,157.77,0,0,1-39.32.79,140.72,140.72,0,0,1-39.5-9.63c-12-4.94-23.64-10.5-33.56-19.16-11.42-10-20.18-21.94-27.13-35.3-9.41-18.06-15.19-37.36-19.25-57.21a414.69,414.69,0,0,1-6.91-52.56c-1.52-20.64-1.74-41.31-1.37-62,.25-14.32,1-28.63,2-42.92,1.37-19.43,3.06-38.82,5.4-58.15,1-8.25,1.45-16.57,2.86-24.77.09-.51.24-1,.4-1.67a6.38,6.38,0,0,1,1.57,2.36c9.38,17.14,20.07,33.39,33,48.14a199.67,199.67,0,0,0,51.17,41.86C163.38,263.65,180,271,196.73,278c22.87,9.65,45.79,19.19,67.75,30.86C281,317.64,297,327,311.62,338.76c17.54,14.16,32.67,30.41,43.59,50.31a114.52,114.52,0,0,1,14.16,45.61c2.65,30.68-5.74,58-25.73,81.56a113.25,113.25,0,0,1-44.38,32.06c-.29.12-.57.28-1.15.57a11.61,11.61,0,0,0,4.38.21c14.95-.81,28.32-6.11,40.48-14.56,16.09-11.19,28.95-25.23,37-43.28a98.49,98.49,0,0,0,8.14-34.08c1.34-20.38-2.35-40.1-7.86-59.56-6.47-22.85-15.58-44.71-25.26-66.35-11.9-26.56-24.91-52.61-36.64-79.25-8.64-19.64-16.69-39.5-22.08-60.34-3.22-12.43-5.37-25-5.35-37.92.05-27.64,11.46-49.31,34.4-64.81,12.27-8.28,25.45-14.54,40.23-16.88,23.51-3.72,44.4,2.28,62.62,17.45,10.21,8.49,17.87,18.9,22.06,31.6,3.11,9.41,3.73,18.87-.53,28.19a23.57,23.57,0,0,1-4.76,7c-1.11,1.1-1.07,1.93-.47,3.24,5.36,11.71,10.64,23.45,15.93,35.18a3.74,3.74,0,0,1,.62,2,43.67,43.67,0,0,1-8.57-2.21c-15-5-28.94-12.21-42.23-20.7-9.54-6.1-18.66-12.79-26.46-21.06-11.16-11.83-17.33-25.82-18.08-42.19a104.76,104.76,0,0,1,.86-16.13,70.47,70.47,0,0,0-9.31,6.64c-7.08,5.84-13.11,12.5-16.27,21.31-3.21,9-2.23,17.79,1,26.52,3.8,10.37,9.94,19.35,16.63,28,9.12,11.77,19.3,22.61,29.68,33.26,13.78,14.16,27.75,28.15,41.46,42.38,21.38,22.19,41.82,45.2,59.8,70.29,20.71,28.91,37.58,59.77,48.31,93.81a147.61,147.61,0,0,1,6.93,34.06c2.13,30.93-5.71,58.85-25.71,83-14.16,17.08-32,29.29-51.93,38.51-20.59,9.52-42.3,15.26-64.64,18.79a350.73,350.73,0,0,1-40,4C360.07,595.08,357.63,595.21,355.2,595.33Z"/><path class="cls-8" d="M435.05,21.55c-14.13,12.47-22.76,27.39-21.85,47-4.65-2-9.11-3.83-13.67-5.33-9.77-3.23-19.71-4.93-30-3.73-9.21,1.08-17.85,4.11-26.24,7.9-4.2,1.9-8.32,4-12.77,6.1,4-18,.83-34.65-8.7-50.47a34.36,34.36,0,0,1,14,4.4,31.58,31.58,0,0,1,10.37,9.91c2.74,4.1,4.39,8.67,5.92,13.57C364.23,36.68,370.59,20.65,370.16,2l2.1,6.68a116.47,116.47,0,0,0,11.87,26.91,52.25,52.25,0,0,0,10.52,12.3c2.16,1.83,2.17,1.78,3.37-.68,5.79-11.84,15.35-19.23,27.65-23.38A42.53,42.53,0,0,1,435.05,21.55Z"/></g></svg>