<svg xmlns="http://www.w3.org/2000/svg" xmlns:xlink="http://www.w3.org/1999/xlink" width="2000" zoomAndPan="magnify" viewBox="0 0 1500 1499.999933" height="2000" preserveAspectRatio="xMidYMid meet" version="1.0"><path fill="#5d0099" d="M 459.585938 1475.660156 L 1475.507812 1475.660156 L 1427.132812 411.359375 L 507.960938 411.359375 L 499.164062 629.054688 " fill-opacity="1" fill-rule="nonzero"/><path fill="#b556f2" d="M 786.132812 1475.660156 L 84.660156 1475.660156 C 51.261719 1475.660156 24.1875 1448.585938 24.1875 1415.1875 L 24.1875 629.054688 L 846.601562 629.054688 L 846.601562 1415.1875 C 846.601562 1448.585938 819.53125 1475.660156 786.132812 1475.660156 Z M 786.132812 1475.660156 " fill-opacity="1" fill-rule="nonzero"/><path fill="#000000" d="M 701.472656 725.8125 L 604.714844 725.8125 C 591.359375 725.8125 580.527344 736.640625 580.527344 750 C 580.527344 763.359375 591.359375 774.1875 604.714844 774.1875 L 628.90625 774.1875 L 628.90625 943.507812 C 628.90625 1050.210938 542.097656 1137.019531 435.394531 1137.019531 C 328.695312 1137.019531 241.886719 1050.210938 241.886719 943.507812 L 241.886719 774.1875 L 266.074219 774.1875 C 279.433594 774.1875 290.265625 763.359375 290.265625 750 C 290.265625 736.640625 279.433594 725.8125 266.074219 725.8125 L 169.320312 725.8125 C 155.960938 725.8125 145.132812 736.640625 145.132812 750 C 145.132812 763.359375 155.960938 774.1875 169.320312 774.1875 L 193.507812 774.1875 L 193.507812 943.507812 C 193.507812 1076.886719 302.019531 1185.394531 435.394531 1185.394531 C 568.773438 1185.394531 677.28125 1076.886719 677.28125 943.507812 L 677.28125 774.1875 L 701.472656 774.1875 C 714.828125 774.1875 725.660156 763.359375 725.660156 750 C 725.660156 736.640625 714.828125 725.8125 701.472656 725.8125 Z M 701.472656 725.8125 " fill-opacity="1" fill-rule="nonzero"/><path fill="#000000" d="M 1451.289062 410.269531 C 1450.714844 397.328125 1440.074219 387.167969 1427.132812 387.167969 L 1233.621094 387.167969 L 1233.621094 266.226562 C 1233.621094 119.523438 1114.25 0.152344 967.546875 0.152344 C 820.84375 0.152344 701.472656 119.523438 701.472656 266.226562 L 701.472656 387.167969 L 507.960938 387.167969 C 494.992188 387.167969 484.316406 397.417969 483.804688 410.390625 L 475.941406 604.867188 L 24.1875 604.867188 C 10.824219 604.867188 0 615.691406 0 629.054688 L 0 1415.1875 C 0 1461.871094 37.976562 1499.847656 84.660156 1499.847656 L 1475.507812 1499.847656 C 1482.101562 1499.847656 1488.417969 1497.15625 1492.984375 1492.378906 C 1497.550781 1487.601562 1499.96875 1481.164062 1499.667969 1474.570312 Z M 749.847656 266.226562 C 749.847656 146.191406 847.511719 48.527344 967.546875 48.527344 C 1087.582031 48.527344 1185.246094 146.191406 1185.246094 266.226562 L 1185.246094 387.167969 L 749.847656 387.167969 Z M 822.414062 1415.1875 C 822.414062 1435.203125 806.148438 1451.472656 786.132812 1451.472656 L 84.660156 1451.472656 C 64.644531 1451.472656 48.378906 1435.203125 48.378906 1415.1875 L 48.378906 653.246094 L 822.414062 653.246094 Z M 862.597656 1451.472656 C 867.859375 1440.464844 870.792969 1428.160156 870.792969 1415.1875 L 870.792969 629.054688 C 870.792969 615.691406 859.96875 604.867188 846.601562 604.867188 L 524.351562 604.867188 L 531.183594 435.546875 L 701.472656 435.546875 L 701.472656 483.925781 L 677.28125 483.925781 C 663.917969 483.925781 653.09375 494.75 653.09375 508.113281 C 653.09375 521.476562 663.917969 532.300781 677.28125 532.300781 L 774.039062 532.300781 C 787.402344 532.300781 798.226562 521.476562 798.226562 508.113281 C 798.226562 494.75 787.402344 483.925781 774.039062 483.925781 L 749.847656 483.925781 L 749.847656 435.546875 L 1185.246094 435.546875 L 1185.246094 483.925781 L 1161.054688 483.925781 C 1147.691406 483.925781 1136.867188 494.75 1136.867188 508.113281 C 1136.867188 521.476562 1147.691406 532.300781 1161.054688 532.300781 L 1257.8125 532.300781 C 1271.175781 532.300781 1282 521.476562 1282 508.113281 C 1282 494.75 1271.175781 483.925781 1257.8125 483.925781 L 1233.621094 483.925781 L 1233.621094 435.546875 L 1404.03125 435.546875 L 1450.203125 1451.472656 Z M 862.597656 1451.472656 " fill-opacity="1" fill-rule="nonzero"/></svg>